<mxfile host="app.diagrams.net" agent="Mozilla/5.0 (Windows NT 10.0; Win64; x64) AppleWebKit/537.36 (KHTML, like Gecko) Chrome/130.0.0.0 Safari/537.36" version="24.8.4">
  <diagram id="C5RBs43oDa-KdzZeNtuy" name="Page-1">
    <mxGraphModel dx="5834" dy="3630" grid="1" gridSize="10" guides="1" tooltips="1" connect="1" arrows="1" fold="1" page="1" pageScale="1" pageWidth="3300" pageHeight="2339" math="0" shadow="0">
      <root>
        <mxCell id="WIyWlLk6GJQsqaUBKTNV-0" />
        <mxCell id="WIyWlLk6GJQsqaUBKTNV-1" parent="WIyWlLk6GJQsqaUBKTNV-0" />
        <mxCell id="eS_6kq-HFucETP7qqi-i-0" value="CreateInvoiceDataPort" style="swimlane;fontStyle=2;align=center;verticalAlign=top;childLayout=stackLayout;horizontal=1;startSize=26;horizontalStack=0;resizeParent=1;resizeLast=0;collapsible=1;marginBottom=0;rounded=0;shadow=0;strokeWidth=1;" parent="WIyWlLk6GJQsqaUBKTNV-1" vertex="1">
          <mxGeometry x="-2058" y="-1383" width="278" height="90" as="geometry">
            <mxRectangle x="230" y="140" width="160" height="26" as="alternateBounds" />
          </mxGeometry>
        </mxCell>
        <mxCell id="eS_6kq-HFucETP7qqi-i-1" value="InvoiceDataRepository invoiceDataRepository" style="text;align=left;verticalAlign=top;spacingLeft=4;spacingRight=4;overflow=hidden;rotatable=0;points=[[0,0.5],[1,0.5]];portConstraint=eastwest;" parent="eS_6kq-HFucETP7qqi-i-0" vertex="1">
          <mxGeometry y="26" width="278" height="26" as="geometry" />
        </mxCell>
        <mxCell id="eS_6kq-HFucETP7qqi-i-4" value="" style="line;html=1;strokeWidth=1;align=left;verticalAlign=middle;spacingTop=-1;spacingLeft=3;spacingRight=3;rotatable=0;labelPosition=right;points=[];portConstraint=eastwest;" parent="eS_6kq-HFucETP7qqi-i-0" vertex="1">
          <mxGeometry y="52" width="278" height="8" as="geometry" />
        </mxCell>
        <mxCell id="eS_6kq-HFucETP7qqi-i-5" value="save(InvoiceData InvoiceData)" style="text;align=left;verticalAlign=top;spacingLeft=4;spacingRight=4;overflow=hidden;rotatable=0;points=[[0,0.5],[1,0.5]];portConstraint=eastwest;" parent="eS_6kq-HFucETP7qqi-i-0" vertex="1">
          <mxGeometry y="60" width="278" height="26" as="geometry" />
        </mxCell>
        <mxCell id="eS_6kq-HFucETP7qqi-i-6" value="DeleteInvoiceDataPort" style="swimlane;fontStyle=2;align=center;verticalAlign=top;childLayout=stackLayout;horizontal=1;startSize=26;horizontalStack=0;resizeParent=1;resizeLast=0;collapsible=1;marginBottom=0;rounded=0;shadow=0;strokeWidth=1;" parent="WIyWlLk6GJQsqaUBKTNV-1" vertex="1">
          <mxGeometry x="-2060" y="-1253" width="270" height="90" as="geometry">
            <mxRectangle x="230" y="140" width="160" height="26" as="alternateBounds" />
          </mxGeometry>
        </mxCell>
        <mxCell id="eS_6kq-HFucETP7qqi-i-7" value="InvoiceDataRepository invoiceDataRepository" style="text;align=left;verticalAlign=top;spacingLeft=4;spacingRight=4;overflow=hidden;rotatable=0;points=[[0,0.5],[1,0.5]];portConstraint=eastwest;" parent="eS_6kq-HFucETP7qqi-i-6" vertex="1">
          <mxGeometry y="26" width="270" height="26" as="geometry" />
        </mxCell>
        <mxCell id="eS_6kq-HFucETP7qqi-i-8" value="" style="line;html=1;strokeWidth=1;align=left;verticalAlign=middle;spacingTop=-1;spacingLeft=3;spacingRight=3;rotatable=0;labelPosition=right;points=[];portConstraint=eastwest;" parent="eS_6kq-HFucETP7qqi-i-6" vertex="1">
          <mxGeometry y="52" width="270" height="8" as="geometry" />
        </mxCell>
        <mxCell id="eS_6kq-HFucETP7qqi-i-9" value="deleteById(InvoiceDataId InvoiceDataId)" style="text;align=left;verticalAlign=top;spacingLeft=4;spacingRight=4;overflow=hidden;rotatable=0;points=[[0,0.5],[1,0.5]];portConstraint=eastwest;" parent="eS_6kq-HFucETP7qqi-i-6" vertex="1">
          <mxGeometry y="60" width="270" height="26" as="geometry" />
        </mxCell>
        <mxCell id="eS_6kq-HFucETP7qqi-i-194" style="edgeStyle=orthogonalEdgeStyle;rounded=0;orthogonalLoop=1;jettySize=auto;html=1;entryX=0;entryY=0.5;entryDx=0;entryDy=0;endArrow=none;endFill=0;" parent="WIyWlLk6GJQsqaUBKTNV-1" source="eS_6kq-HFucETP7qqi-i-10" edge="1">
          <mxGeometry relative="1" as="geometry">
            <Array as="points">
              <mxPoint x="-1730" y="-1077" />
              <mxPoint x="-1730" y="-1117" />
            </Array>
            <mxPoint x="-1670" y="-1116.9999999999998" as="targetPoint" />
          </mxGeometry>
        </mxCell>
        <mxCell id="eS_6kq-HFucETP7qqi-i-10" value="ModifyInvoiceDataPort" style="swimlane;fontStyle=2;align=center;verticalAlign=top;childLayout=stackLayout;horizontal=1;startSize=26;horizontalStack=0;resizeParent=1;resizeLast=0;collapsible=1;marginBottom=0;rounded=0;shadow=0;strokeWidth=1;" parent="WIyWlLk6GJQsqaUBKTNV-1" vertex="1">
          <mxGeometry x="-2053" y="-1122" width="263" height="90" as="geometry">
            <mxRectangle x="230" y="140" width="160" height="26" as="alternateBounds" />
          </mxGeometry>
        </mxCell>
        <mxCell id="eS_6kq-HFucETP7qqi-i-11" value="InvoiceDataRepository invoiceDataRepository" style="text;align=left;verticalAlign=top;spacingLeft=4;spacingRight=4;overflow=hidden;rotatable=0;points=[[0,0.5],[1,0.5]];portConstraint=eastwest;" parent="eS_6kq-HFucETP7qqi-i-10" vertex="1">
          <mxGeometry y="26" width="263" height="26" as="geometry" />
        </mxCell>
        <mxCell id="eS_6kq-HFucETP7qqi-i-12" value="" style="line;html=1;strokeWidth=1;align=left;verticalAlign=middle;spacingTop=-1;spacingLeft=3;spacingRight=3;rotatable=0;labelPosition=right;points=[];portConstraint=eastwest;" parent="eS_6kq-HFucETP7qqi-i-10" vertex="1">
          <mxGeometry y="52" width="263" height="8" as="geometry" />
        </mxCell>
        <mxCell id="eS_6kq-HFucETP7qqi-i-13" value="modifyInvoiceData(InvoiceData invoiceData)" style="text;align=left;verticalAlign=top;spacingLeft=4;spacingRight=4;overflow=hidden;rotatable=0;points=[[0,0.5],[1,0.5]];portConstraint=eastwest;" parent="eS_6kq-HFucETP7qqi-i-10" vertex="1">
          <mxGeometry y="60" width="263" height="26" as="geometry" />
        </mxCell>
        <mxCell id="eS_6kq-HFucETP7qqi-i-195" style="edgeStyle=orthogonalEdgeStyle;rounded=0;orthogonalLoop=1;jettySize=auto;html=1;entryX=0;entryY=0.5;entryDx=0;entryDy=0;endArrow=none;endFill=0;" parent="WIyWlLk6GJQsqaUBKTNV-1" source="eS_6kq-HFucETP7qqi-i-14" edge="1">
          <mxGeometry relative="1" as="geometry">
            <Array as="points">
              <mxPoint x="-1730" y="-963" />
              <mxPoint x="-1730" y="-1117" />
            </Array>
            <mxPoint x="-1670" y="-1116.9999999999998" as="targetPoint" />
          </mxGeometry>
        </mxCell>
        <mxCell id="eS_6kq-HFucETP7qqi-i-14" value="FindInvoiceDataByIdPort" style="swimlane;fontStyle=2;align=center;verticalAlign=top;childLayout=stackLayout;horizontal=1;startSize=26;horizontalStack=0;resizeParent=1;resizeLast=0;collapsible=1;marginBottom=0;rounded=0;shadow=0;strokeWidth=1;" parent="WIyWlLk6GJQsqaUBKTNV-1" vertex="1">
          <mxGeometry x="-2051" y="-1008" width="271" height="90" as="geometry">
            <mxRectangle x="230" y="140" width="160" height="26" as="alternateBounds" />
          </mxGeometry>
        </mxCell>
        <mxCell id="eS_6kq-HFucETP7qqi-i-15" value="InvoiceDataRepository invoiceDataRepository" style="text;align=left;verticalAlign=top;spacingLeft=4;spacingRight=4;overflow=hidden;rotatable=0;points=[[0,0.5],[1,0.5]];portConstraint=eastwest;" parent="eS_6kq-HFucETP7qqi-i-14" vertex="1">
          <mxGeometry y="26" width="271" height="26" as="geometry" />
        </mxCell>
        <mxCell id="eS_6kq-HFucETP7qqi-i-16" value="" style="line;html=1;strokeWidth=1;align=left;verticalAlign=middle;spacingTop=-1;spacingLeft=3;spacingRight=3;rotatable=0;labelPosition=right;points=[];portConstraint=eastwest;" parent="eS_6kq-HFucETP7qqi-i-14" vertex="1">
          <mxGeometry y="52" width="271" height="8" as="geometry" />
        </mxCell>
        <mxCell id="eS_6kq-HFucETP7qqi-i-17" value="getInvoiceDataById(String invoiceDataId)" style="text;align=left;verticalAlign=top;spacingLeft=4;spacingRight=4;overflow=hidden;rotatable=0;points=[[0,0.5],[1,0.5]];portConstraint=eastwest;" parent="eS_6kq-HFucETP7qqi-i-14" vertex="1">
          <mxGeometry y="60" width="271" height="26" as="geometry" />
        </mxCell>
        <mxCell id="eS_6kq-HFucETP7qqi-i-196" style="edgeStyle=orthogonalEdgeStyle;rounded=0;orthogonalLoop=1;jettySize=auto;html=1;entryX=-0.002;entryY=0.762;entryDx=0;entryDy=0;endArrow=none;endFill=0;entryPerimeter=0;" parent="WIyWlLk6GJQsqaUBKTNV-1" source="eS_6kq-HFucETP7qqi-i-18" target="ApyK9dZCyS79xW809X-P-88" edge="1">
          <mxGeometry relative="1" as="geometry">
            <Array as="points">
              <mxPoint x="-1730" y="-1117" />
            </Array>
            <mxPoint x="-1670" y="-1116.9999999999998" as="targetPoint" />
          </mxGeometry>
        </mxCell>
        <mxCell id="eS_6kq-HFucETP7qqi-i-261" style="edgeStyle=orthogonalEdgeStyle;rounded=0;orthogonalLoop=1;jettySize=auto;html=1;entryX=0.5;entryY=0;entryDx=0;entryDy=0;" parent="WIyWlLk6GJQsqaUBKTNV-1" source="eS_6kq-HFucETP7qqi-i-18" target="eS_6kq-HFucETP7qqi-i-44" edge="1">
          <mxGeometry relative="1" as="geometry" />
        </mxCell>
        <mxCell id="eS_6kq-HFucETP7qqi-i-18" value="FindInvoiceDatasPort" style="swimlane;fontStyle=2;align=center;verticalAlign=top;childLayout=stackLayout;horizontal=1;startSize=26;horizontalStack=0;resizeParent=1;resizeLast=0;collapsible=1;marginBottom=0;rounded=0;shadow=0;strokeWidth=1;" parent="WIyWlLk6GJQsqaUBKTNV-1" vertex="1">
          <mxGeometry x="-2051" y="-893" width="341" height="112" as="geometry">
            <mxRectangle x="230" y="140" width="160" height="26" as="alternateBounds" />
          </mxGeometry>
        </mxCell>
        <mxCell id="eS_6kq-HFucETP7qqi-i-19" value="InvoiceDataRepository invoiceDataRepository" style="text;align=left;verticalAlign=top;spacingLeft=4;spacingRight=4;overflow=hidden;rotatable=0;points=[[0,0.5],[1,0.5]];portConstraint=eastwest;" parent="eS_6kq-HFucETP7qqi-i-18" vertex="1">
          <mxGeometry y="26" width="341" height="26" as="geometry" />
        </mxCell>
        <mxCell id="eS_6kq-HFucETP7qqi-i-22" value="List&lt;InvoiceDataFieldFilter&gt; invoiceDataFilterList  " style="text;align=left;verticalAlign=top;spacingLeft=4;spacingRight=4;overflow=hidden;rotatable=0;points=[[0,0.5],[1,0.5]];portConstraint=eastwest;" parent="eS_6kq-HFucETP7qqi-i-18" vertex="1">
          <mxGeometry y="52" width="341" height="26" as="geometry" />
        </mxCell>
        <mxCell id="eS_6kq-HFucETP7qqi-i-20" value="" style="line;html=1;strokeWidth=1;align=left;verticalAlign=middle;spacingTop=-1;spacingLeft=3;spacingRight=3;rotatable=0;labelPosition=right;points=[];portConstraint=eastwest;" parent="eS_6kq-HFucETP7qqi-i-18" vertex="1">
          <mxGeometry y="78" width="341" height="8" as="geometry" />
        </mxCell>
        <mxCell id="eS_6kq-HFucETP7qqi-i-21" value="findInvoiceDataById(InvoiceDataFilters invoiceDataFilters)" style="text;align=left;verticalAlign=top;spacingLeft=4;spacingRight=4;overflow=hidden;rotatable=0;points=[[0,0.5],[1,0.5]];portConstraint=eastwest;" parent="eS_6kq-HFucETP7qqi-i-18" vertex="1">
          <mxGeometry y="86" width="341" height="26" as="geometry" />
        </mxCell>
        <mxCell id="eS_6kq-HFucETP7qqi-i-23" value="CreateInvoiceDataUseCase" style="swimlane;fontStyle=2;align=center;verticalAlign=top;childLayout=stackLayout;horizontal=1;startSize=26;horizontalStack=0;resizeParent=1;resizeLast=0;collapsible=1;marginBottom=0;rounded=0;shadow=0;strokeWidth=1;fillColor=#fff2cc;strokeColor=#d6b656;" parent="WIyWlLk6GJQsqaUBKTNV-1" vertex="1">
          <mxGeometry x="-2387.5" y="-1350" width="187.5" height="60" as="geometry">
            <mxRectangle x="230" y="140" width="160" height="26" as="alternateBounds" />
          </mxGeometry>
        </mxCell>
        <mxCell id="eS_6kq-HFucETP7qqi-i-26" value="save(InvoiceData invoiceData)" style="text;align=left;verticalAlign=top;spacingLeft=4;spacingRight=4;overflow=hidden;rotatable=0;points=[[0,0.5],[1,0.5]];portConstraint=eastwest;" parent="eS_6kq-HFucETP7qqi-i-23" vertex="1">
          <mxGeometry y="26" width="187.5" height="26" as="geometry" />
        </mxCell>
        <mxCell id="eS_6kq-HFucETP7qqi-i-27" value="DeleteInvoiceDataUseCase" style="swimlane;fontStyle=2;align=center;verticalAlign=top;childLayout=stackLayout;horizontal=1;startSize=26;horizontalStack=0;resizeParent=1;resizeLast=0;collapsible=1;marginBottom=0;rounded=0;shadow=0;strokeWidth=1;fillColor=#fff2cc;strokeColor=#d6b656;" parent="WIyWlLk6GJQsqaUBKTNV-1" vertex="1">
          <mxGeometry x="-2397" y="-1220" width="185" height="60" as="geometry">
            <mxRectangle x="230" y="140" width="160" height="26" as="alternateBounds" />
          </mxGeometry>
        </mxCell>
        <mxCell id="eS_6kq-HFucETP7qqi-i-30" value="deleteById(String invoiceDataId)" style="text;align=left;verticalAlign=top;spacingLeft=4;spacingRight=4;overflow=hidden;rotatable=0;points=[[0,0.5],[1,0.5]];portConstraint=eastwest;" parent="eS_6kq-HFucETP7qqi-i-27" vertex="1">
          <mxGeometry y="26" width="185" height="26" as="geometry" />
        </mxCell>
        <mxCell id="eS_6kq-HFucETP7qqi-i-31" value="ModifyInvoiceDataUseCase" style="swimlane;fontStyle=2;align=center;verticalAlign=top;childLayout=stackLayout;horizontal=1;startSize=26;horizontalStack=0;resizeParent=1;resizeLast=0;collapsible=1;marginBottom=0;rounded=0;shadow=0;strokeWidth=1;fillColor=#fff2cc;strokeColor=#d6b656;" parent="WIyWlLk6GJQsqaUBKTNV-1" vertex="1">
          <mxGeometry x="-2400" y="-1091" width="260" height="60" as="geometry">
            <mxRectangle x="230" y="140" width="160" height="26" as="alternateBounds" />
          </mxGeometry>
        </mxCell>
        <mxCell id="eS_6kq-HFucETP7qqi-i-34" value="modifyInvoiceData(InvoiceData invoiceData)" style="text;align=left;verticalAlign=top;spacingLeft=4;spacingRight=4;overflow=hidden;rotatable=0;points=[[0,0.5],[1,0.5]];portConstraint=eastwest;" parent="eS_6kq-HFucETP7qqi-i-31" vertex="1">
          <mxGeometry y="26" width="260" height="26" as="geometry" />
        </mxCell>
        <mxCell id="eS_6kq-HFucETP7qqi-i-35" value="GetInvoiceDataByIdUseCase" style="swimlane;fontStyle=2;align=center;verticalAlign=top;childLayout=stackLayout;horizontal=1;startSize=26;horizontalStack=0;resizeParent=1;resizeLast=0;collapsible=1;marginBottom=0;rounded=0;shadow=0;strokeWidth=1;fillColor=#fff2cc;strokeColor=#d6b656;" parent="WIyWlLk6GJQsqaUBKTNV-1" vertex="1">
          <mxGeometry x="-2400" y="-978" width="240" height="52" as="geometry">
            <mxRectangle x="230" y="140" width="160" height="26" as="alternateBounds" />
          </mxGeometry>
        </mxCell>
        <mxCell id="eS_6kq-HFucETP7qqi-i-38" value="getInvoiceDataById(String invoiceDataId)" style="text;align=left;verticalAlign=top;spacingLeft=4;spacingRight=4;overflow=hidden;rotatable=0;points=[[0,0.5],[1,0.5]];portConstraint=eastwest;" parent="eS_6kq-HFucETP7qqi-i-35" vertex="1">
          <mxGeometry y="26" width="240" height="26" as="geometry" />
        </mxCell>
        <mxCell id="eS_6kq-HFucETP7qqi-i-39" value="FindInvoiceDatasUseCase" style="swimlane;fontStyle=2;align=center;verticalAlign=top;childLayout=stackLayout;horizontal=1;startSize=26;horizontalStack=0;resizeParent=1;resizeLast=0;collapsible=1;marginBottom=0;rounded=0;shadow=0;strokeWidth=1;fillColor=#fff2cc;strokeColor=#d6b656;" parent="WIyWlLk6GJQsqaUBKTNV-1" vertex="1">
          <mxGeometry x="-2420" y="-860" width="340" height="60" as="geometry">
            <mxRectangle x="230" y="140" width="160" height="26" as="alternateBounds" />
          </mxGeometry>
        </mxCell>
        <mxCell id="eS_6kq-HFucETP7qqi-i-43" value="findInvoiceDataById(InvoiceDataFilters invoiceDataFilters)" style="text;align=left;verticalAlign=top;spacingLeft=4;spacingRight=4;overflow=hidden;rotatable=0;points=[[0,0.5],[1,0.5]];portConstraint=eastwest;" parent="eS_6kq-HFucETP7qqi-i-39" vertex="1">
          <mxGeometry y="26" width="340" height="26" as="geometry" />
        </mxCell>
        <mxCell id="ApyK9dZCyS79xW809X-P-17" style="edgeStyle=orthogonalEdgeStyle;rounded=0;orthogonalLoop=1;jettySize=auto;html=1;exitX=0.5;exitY=1;exitDx=0;exitDy=0;entryX=0.5;entryY=0;entryDx=0;entryDy=0;endArrow=none;endFill=0;startArrow=none;startFill=0;" parent="WIyWlLk6GJQsqaUBKTNV-1" source="eS_6kq-HFucETP7qqi-i-44" target="eS_6kq-HFucETP7qqi-i-64" edge="1">
          <mxGeometry relative="1" as="geometry" />
        </mxCell>
        <mxCell id="ApyK9dZCyS79xW809X-P-19" style="edgeStyle=orthogonalEdgeStyle;rounded=0;orthogonalLoop=1;jettySize=auto;html=1;startArrow=block;startFill=0;endArrow=none;endFill=0;" parent="WIyWlLk6GJQsqaUBKTNV-1" source="eS_6kq-HFucETP7qqi-i-44" target="eS_6kq-HFucETP7qqi-i-67" edge="1">
          <mxGeometry relative="1" as="geometry" />
        </mxCell>
        <mxCell id="eS_6kq-HFucETP7qqi-i-44" value="FieldFilter&lt;T&gt;" style="swimlane;fontStyle=2;align=center;verticalAlign=top;childLayout=stackLayout;horizontal=1;startSize=26;horizontalStack=0;resizeParent=1;resizeLast=0;collapsible=1;marginBottom=0;rounded=0;shadow=0;strokeWidth=1;fillColor=#fff2cc;strokeColor=#d6b656;" parent="WIyWlLk6GJQsqaUBKTNV-1" vertex="1">
          <mxGeometry x="-2103" y="-746" width="240" height="120" as="geometry">
            <mxRectangle x="230" y="140" width="160" height="26" as="alternateBounds" />
          </mxGeometry>
        </mxCell>
        <mxCell id="eS_6kq-HFucETP7qqi-i-47" value="apply (T filter)" style="text;align=left;verticalAlign=top;spacingLeft=4;spacingRight=4;overflow=hidden;rotatable=0;points=[[0,0.5],[1,0.5]];portConstraint=eastwest;" parent="eS_6kq-HFucETP7qqi-i-44" vertex="1">
          <mxGeometry y="26" width="240" height="26" as="geometry" />
        </mxCell>
        <mxCell id="eS_6kq-HFucETP7qqi-i-58" value="addSearchCriteria(T&#xa;filter, List&lt;SearchCriteria&gt; &#xa;searchCriteriaList)" style="text;align=left;verticalAlign=top;spacingLeft=4;spacingRight=4;overflow=hidden;rotatable=0;points=[[0,0.5],[1,0.5]];portConstraint=eastwest;fillColor=#FFFFFF;" parent="eS_6kq-HFucETP7qqi-i-44" vertex="1">
          <mxGeometry y="52" width="240" height="44" as="geometry" />
        </mxCell>
        <mxCell id="eS_6kq-HFucETP7qqi-i-208" value="" style="edgeStyle=orthogonalEdgeStyle;rounded=0;orthogonalLoop=1;jettySize=auto;html=1;entryX=0.453;entryY=0.006;entryDx=0;entryDy=0;entryPerimeter=0;" parent="WIyWlLk6GJQsqaUBKTNV-1" source="eS_6kq-HFucETP7qqi-i-48" target="eS_6kq-HFucETP7qqi-i-53" edge="1">
          <mxGeometry relative="1" as="geometry" />
        </mxCell>
        <mxCell id="eS_6kq-HFucETP7qqi-i-48" value="SearchCriteria" style="swimlane;fontStyle=2;align=center;verticalAlign=top;childLayout=stackLayout;horizontal=1;startSize=26;horizontalStack=0;resizeParent=1;resizeLast=0;collapsible=1;marginBottom=0;rounded=0;shadow=0;strokeWidth=1;" parent="WIyWlLk6GJQsqaUBKTNV-1" vertex="1">
          <mxGeometry x="-1670" y="-950" width="210" height="104" as="geometry">
            <mxRectangle x="230" y="140" width="160" height="26" as="alternateBounds" />
          </mxGeometry>
        </mxCell>
        <mxCell id="eS_6kq-HFucETP7qqi-i-49" value="key (String)" style="text;align=left;verticalAlign=top;spacingLeft=4;spacingRight=4;overflow=hidden;rotatable=0;points=[[0,0.5],[1,0.5]];portConstraint=eastwest;" parent="eS_6kq-HFucETP7qqi-i-48" vertex="1">
          <mxGeometry y="26" width="210" height="26" as="geometry" />
        </mxCell>
        <mxCell id="eS_6kq-HFucETP7qqi-i-52" value="operation (SearchOperation)" style="text;align=left;verticalAlign=top;spacingLeft=4;spacingRight=4;overflow=hidden;rotatable=0;points=[[0,0.5],[1,0.5]];portConstraint=eastwest;" parent="eS_6kq-HFucETP7qqi-i-48" vertex="1">
          <mxGeometry y="52" width="210" height="26" as="geometry" />
        </mxCell>
        <mxCell id="eS_6kq-HFucETP7qqi-i-51" value="value (Object)" style="text;align=left;verticalAlign=top;spacingLeft=4;spacingRight=4;overflow=hidden;rotatable=0;points=[[0,0.5],[1,0.5]];portConstraint=eastwest;" parent="eS_6kq-HFucETP7qqi-i-48" vertex="1">
          <mxGeometry y="78" width="210" height="26" as="geometry" />
        </mxCell>
        <mxCell id="eS_6kq-HFucETP7qqi-i-53" value="SearchOperation (enum)" style="swimlane;fontStyle=2;align=center;verticalAlign=top;childLayout=stackLayout;horizontal=1;startSize=26;horizontalStack=0;resizeParent=1;resizeLast=0;collapsible=1;marginBottom=0;rounded=0;shadow=0;strokeWidth=1;" parent="WIyWlLk6GJQsqaUBKTNV-1" vertex="1">
          <mxGeometry x="-1660" y="-810" width="210" height="104" as="geometry">
            <mxRectangle x="230" y="140" width="160" height="26" as="alternateBounds" />
          </mxGeometry>
        </mxCell>
        <mxCell id="eS_6kq-HFucETP7qqi-i-54" value="EQUAL" style="text;align=left;verticalAlign=top;spacingLeft=4;spacingRight=4;overflow=hidden;rotatable=0;points=[[0,0.5],[1,0.5]];portConstraint=eastwest;" parent="eS_6kq-HFucETP7qqi-i-53" vertex="1">
          <mxGeometry y="26" width="210" height="26" as="geometry" />
        </mxCell>
        <mxCell id="eS_6kq-HFucETP7qqi-i-55" value="LIKE" style="text;align=left;verticalAlign=top;spacingLeft=4;spacingRight=4;overflow=hidden;rotatable=0;points=[[0,0.5],[1,0.5]];portConstraint=eastwest;" parent="eS_6kq-HFucETP7qqi-i-53" vertex="1">
          <mxGeometry y="52" width="210" height="26" as="geometry" />
        </mxCell>
        <mxCell id="eS_6kq-HFucETP7qqi-i-64" value="InvoiceSubtotalAmountFilter" style="swimlane;fontStyle=2;align=center;verticalAlign=top;childLayout=stackLayout;horizontal=1;startSize=26;horizontalStack=0;resizeParent=1;resizeLast=0;collapsible=1;marginBottom=0;rounded=0;shadow=0;strokeWidth=1;" parent="WIyWlLk6GJQsqaUBKTNV-1" vertex="1">
          <mxGeometry x="-2440" y="-574" width="240" height="110" as="geometry">
            <mxRectangle x="230" y="140" width="160" height="26" as="alternateBounds" />
          </mxGeometry>
        </mxCell>
        <mxCell id="eS_6kq-HFucETP7qqi-i-65" value="apply (InvoiceDatafilter invoiceDataFilter)" style="text;align=left;verticalAlign=top;spacingLeft=4;spacingRight=4;overflow=hidden;rotatable=0;points=[[0,0.5],[1,0.5]];portConstraint=eastwest;" parent="eS_6kq-HFucETP7qqi-i-64" vertex="1">
          <mxGeometry y="26" width="240" height="26" as="geometry" />
        </mxCell>
        <mxCell id="eS_6kq-HFucETP7qqi-i-66" value="addSearchCriteria(InvoiceDataFilter &#xa;InvoiceDataFilter, List&lt;SearchCriteria&gt; &#xa;searchCriteriaList)" style="text;align=left;verticalAlign=top;spacingLeft=4;spacingRight=4;overflow=hidden;rotatable=0;points=[[0,0.5],[1,0.5]];portConstraint=eastwest;fillColor=#FFFFFF;" parent="eS_6kq-HFucETP7qqi-i-64" vertex="1">
          <mxGeometry y="52" width="240" height="44" as="geometry" />
        </mxCell>
        <mxCell id="eS_6kq-HFucETP7qqi-i-67" value="InvoiceTotalAmountFilter" style="swimlane;fontStyle=2;align=center;verticalAlign=top;childLayout=stackLayout;horizontal=1;startSize=26;horizontalStack=0;resizeParent=1;resizeLast=0;collapsible=1;marginBottom=0;rounded=0;shadow=0;strokeWidth=1;" parent="WIyWlLk6GJQsqaUBKTNV-1" vertex="1">
          <mxGeometry x="-2189" y="-574" width="240" height="110" as="geometry">
            <mxRectangle x="230" y="140" width="160" height="26" as="alternateBounds" />
          </mxGeometry>
        </mxCell>
        <mxCell id="eS_6kq-HFucETP7qqi-i-68" value="apply (InvoiceDatafilter invoiceDataFilter)" style="text;align=left;verticalAlign=top;spacingLeft=4;spacingRight=4;overflow=hidden;rotatable=0;points=[[0,0.5],[1,0.5]];portConstraint=eastwest;" parent="eS_6kq-HFucETP7qqi-i-67" vertex="1">
          <mxGeometry y="26" width="240" height="26" as="geometry" />
        </mxCell>
        <mxCell id="eS_6kq-HFucETP7qqi-i-69" value="addSearchCriteria(InvoiceDataFilter &#xa;InvoiceDataFilter, List&lt;SearchCriteria&gt; &#xa;searchCriteriaList)" style="text;align=left;verticalAlign=top;spacingLeft=4;spacingRight=4;overflow=hidden;rotatable=0;points=[[0,0.5],[1,0.5]];portConstraint=eastwest;fillColor=#FFFFFF;" parent="eS_6kq-HFucETP7qqi-i-67" vertex="1">
          <mxGeometry y="52" width="240" height="44" as="geometry" />
        </mxCell>
        <mxCell id="eS_6kq-HFucETP7qqi-i-76" value="InvoiceTaxRateFilter" style="swimlane;fontStyle=2;align=center;verticalAlign=top;childLayout=stackLayout;horizontal=1;startSize=26;horizontalStack=0;resizeParent=1;resizeLast=0;collapsible=1;marginBottom=0;rounded=0;shadow=0;strokeWidth=1;" parent="WIyWlLk6GJQsqaUBKTNV-1" vertex="1">
          <mxGeometry x="-1940" y="-574" width="240" height="110" as="geometry">
            <mxRectangle x="230" y="140" width="160" height="26" as="alternateBounds" />
          </mxGeometry>
        </mxCell>
        <mxCell id="eS_6kq-HFucETP7qqi-i-77" value="apply (InvoiceDatafilter invoiceDataFilter)" style="text;align=left;verticalAlign=top;spacingLeft=4;spacingRight=4;overflow=hidden;rotatable=0;points=[[0,0.5],[1,0.5]];portConstraint=eastwest;" parent="eS_6kq-HFucETP7qqi-i-76" vertex="1">
          <mxGeometry y="26" width="240" height="26" as="geometry" />
        </mxCell>
        <mxCell id="eS_6kq-HFucETP7qqi-i-78" value="addSearchCriteria(InvoiceDataFilter &#xa;InvoiceDataFilter, List&lt;SearchCriteria&gt; &#xa;searchCriteriaList)" style="text;align=left;verticalAlign=top;spacingLeft=4;spacingRight=4;overflow=hidden;rotatable=0;points=[[0,0.5],[1,0.5]];portConstraint=eastwest;fillColor=#FFFFFF;" parent="eS_6kq-HFucETP7qqi-i-76" vertex="1">
          <mxGeometry y="52" width="240" height="44" as="geometry" />
        </mxCell>
        <mxCell id="eS_6kq-HFucETP7qqi-i-202" style="edgeStyle=orthogonalEdgeStyle;rounded=0;orthogonalLoop=1;jettySize=auto;html=1;endArrow=none;endFill=0;startArrow=classic;startFill=1;" parent="WIyWlLk6GJQsqaUBKTNV-1" source="eS_6kq-HFucETP7qqi-i-82" edge="1">
          <mxGeometry relative="1" as="geometry">
            <mxPoint x="-1535.0000000000005" y="-1240" as="targetPoint" />
          </mxGeometry>
        </mxCell>
        <mxCell id="eS_6kq-HFucETP7qqi-i-82" value="InvoiceData" style="swimlane;fontStyle=2;align=center;verticalAlign=top;childLayout=stackLayout;horizontal=1;startSize=26;horizontalStack=0;resizeParent=1;resizeLast=0;collapsible=1;marginBottom=0;rounded=0;shadow=0;strokeWidth=1;" parent="WIyWlLk6GJQsqaUBKTNV-1" vertex="1">
          <mxGeometry x="-1715" y="-1520" width="185" height="156" as="geometry">
            <mxRectangle x="230" y="140" width="160" height="26" as="alternateBounds" />
          </mxGeometry>
        </mxCell>
        <mxCell id="ApyK9dZCyS79xW809X-P-57" value="String invoiceDataId" style="text;align=left;verticalAlign=top;spacingLeft=4;spacingRight=4;overflow=hidden;rotatable=0;points=[[0,0.5],[1,0.5]];portConstraint=eastwest;" parent="eS_6kq-HFucETP7qqi-i-82" vertex="1">
          <mxGeometry y="26" width="185" height="26" as="geometry" />
        </mxCell>
        <mxCell id="UdSAh6a9KgNJWOaCGTY9-2" value="int appointmentId" style="text;align=left;verticalAlign=top;spacingLeft=4;spacingRight=4;overflow=hidden;rotatable=0;points=[[0,0.5],[1,0.5]];portConstraint=eastwest;" vertex="1" parent="eS_6kq-HFucETP7qqi-i-82">
          <mxGeometry y="52" width="185" height="26" as="geometry" />
        </mxCell>
        <mxCell id="ApyK9dZCyS79xW809X-P-58" value="int subtotalamount" style="text;align=left;verticalAlign=top;spacingLeft=4;spacingRight=4;overflow=hidden;rotatable=0;points=[[0,0.5],[1,0.5]];portConstraint=eastwest;" parent="eS_6kq-HFucETP7qqi-i-82" vertex="1">
          <mxGeometry y="78" width="185" height="26" as="geometry" />
        </mxCell>
        <mxCell id="ApyK9dZCyS79xW809X-P-60" value="int totalAmount" style="text;align=left;verticalAlign=top;spacingLeft=4;spacingRight=4;overflow=hidden;rotatable=0;points=[[0,0.5],[1,0.5]];portConstraint=eastwest;" parent="eS_6kq-HFucETP7qqi-i-82" vertex="1">
          <mxGeometry y="104" width="185" height="26" as="geometry" />
        </mxCell>
        <mxCell id="ApyK9dZCyS79xW809X-P-59" value="int taxRate" style="text;align=left;verticalAlign=top;spacingLeft=4;spacingRight=4;overflow=hidden;rotatable=0;points=[[0,0.5],[1,0.5]];portConstraint=eastwest;" parent="eS_6kq-HFucETP7qqi-i-82" vertex="1">
          <mxGeometry y="130" width="185" height="26" as="geometry" />
        </mxCell>
        <mxCell id="eS_6kq-HFucETP7qqi-i-203" style="edgeStyle=orthogonalEdgeStyle;rounded=0;orthogonalLoop=1;jettySize=auto;html=1;entryX=0.5;entryY=0;entryDx=0;entryDy=0;endArrow=none;endFill=0;startArrow=classic;startFill=1;" parent="WIyWlLk6GJQsqaUBKTNV-1" source="eS_6kq-HFucETP7qqi-i-89" edge="1">
          <mxGeometry relative="1" as="geometry">
            <mxPoint x="-1535" y="-1240" as="targetPoint" />
            <Array as="points">
              <mxPoint x="-1420" y="-1310" />
              <mxPoint x="-1535" y="-1310" />
            </Array>
          </mxGeometry>
        </mxCell>
        <mxCell id="eS_6kq-HFucETP7qqi-i-89" value="InvoiceDataFilters" style="swimlane;fontStyle=2;align=center;verticalAlign=top;childLayout=stackLayout;horizontal=1;startSize=26;horizontalStack=0;resizeParent=1;resizeLast=0;collapsible=1;marginBottom=0;rounded=0;shadow=0;strokeWidth=1;" parent="WIyWlLk6GJQsqaUBKTNV-1" vertex="1">
          <mxGeometry x="-1512.5" y="-1502" width="185" height="156" as="geometry">
            <mxRectangle x="230" y="140" width="160" height="26" as="alternateBounds" />
          </mxGeometry>
        </mxCell>
        <mxCell id="ApyK9dZCyS79xW809X-P-61" value="String invoiceDataId" style="text;align=left;verticalAlign=top;spacingLeft=4;spacingRight=4;overflow=hidden;rotatable=0;points=[[0,0.5],[1,0.5]];portConstraint=eastwest;" parent="eS_6kq-HFucETP7qqi-i-89" vertex="1">
          <mxGeometry y="26" width="185" height="26" as="geometry" />
        </mxCell>
        <mxCell id="UdSAh6a9KgNJWOaCGTY9-1" value="int appointmentId" style="text;align=left;verticalAlign=top;spacingLeft=4;spacingRight=4;overflow=hidden;rotatable=0;points=[[0,0.5],[1,0.5]];portConstraint=eastwest;" vertex="1" parent="eS_6kq-HFucETP7qqi-i-89">
          <mxGeometry y="52" width="185" height="26" as="geometry" />
        </mxCell>
        <mxCell id="Y8DyDsqPOVaIqBGSUZzU-0" value="int subtotalamount" style="text;align=left;verticalAlign=top;spacingLeft=4;spacingRight=4;overflow=hidden;rotatable=0;points=[[0,0.5],[1,0.5]];portConstraint=eastwest;" parent="eS_6kq-HFucETP7qqi-i-89" vertex="1">
          <mxGeometry y="78" width="185" height="26" as="geometry" />
        </mxCell>
        <mxCell id="Y8DyDsqPOVaIqBGSUZzU-1" value="int totalAmount" style="text;align=left;verticalAlign=top;spacingLeft=4;spacingRight=4;overflow=hidden;rotatable=0;points=[[0,0.5],[1,0.5]];portConstraint=eastwest;" parent="eS_6kq-HFucETP7qqi-i-89" vertex="1">
          <mxGeometry y="104" width="185" height="26" as="geometry" />
        </mxCell>
        <mxCell id="Y8DyDsqPOVaIqBGSUZzU-2" value="int taxRate" style="text;align=left;verticalAlign=top;spacingLeft=4;spacingRight=4;overflow=hidden;rotatable=0;points=[[0,0.5],[1,0.5]];portConstraint=eastwest;" parent="eS_6kq-HFucETP7qqi-i-89" vertex="1">
          <mxGeometry y="130" width="185" height="26" as="geometry" />
        </mxCell>
        <mxCell id="eS_6kq-HFucETP7qqi-i-207" style="edgeStyle=orthogonalEdgeStyle;rounded=0;orthogonalLoop=1;jettySize=auto;html=1;" parent="WIyWlLk6GJQsqaUBKTNV-1" target="eS_6kq-HFucETP7qqi-i-48" edge="1">
          <mxGeometry relative="1" as="geometry">
            <mxPoint x="-1530" y="-1000" as="sourcePoint" />
          </mxGeometry>
        </mxCell>
        <mxCell id="eS_6kq-HFucETP7qqi-i-105" value="InvoiceDataApiModel" style="swimlane;fontStyle=2;align=center;verticalAlign=top;childLayout=stackLayout;horizontal=1;startSize=26;horizontalStack=0;resizeParent=1;resizeLast=0;collapsible=1;marginBottom=0;rounded=0;shadow=0;strokeWidth=1;" parent="WIyWlLk6GJQsqaUBKTNV-1" vertex="1">
          <mxGeometry x="-2550" y="-1587" width="185" height="156" as="geometry">
            <mxRectangle x="230" y="140" width="160" height="26" as="alternateBounds" />
          </mxGeometry>
        </mxCell>
        <mxCell id="ApyK9dZCyS79xW809X-P-77" value="String InvoiceDataId" style="text;align=left;verticalAlign=top;spacingLeft=4;spacingRight=4;overflow=hidden;rotatable=0;points=[[0,0.5],[1,0.5]];portConstraint=eastwest;" parent="eS_6kq-HFucETP7qqi-i-105" vertex="1">
          <mxGeometry y="26" width="185" height="26" as="geometry" />
        </mxCell>
        <mxCell id="UdSAh6a9KgNJWOaCGTY9-3" value="int appointmentId" style="text;align=left;verticalAlign=top;spacingLeft=4;spacingRight=4;overflow=hidden;rotatable=0;points=[[0,0.5],[1,0.5]];portConstraint=eastwest;" vertex="1" parent="eS_6kq-HFucETP7qqi-i-105">
          <mxGeometry y="52" width="185" height="26" as="geometry" />
        </mxCell>
        <mxCell id="Y8DyDsqPOVaIqBGSUZzU-3" value="int subtotalamount" style="text;align=left;verticalAlign=top;spacingLeft=4;spacingRight=4;overflow=hidden;rotatable=0;points=[[0,0.5],[1,0.5]];portConstraint=eastwest;" parent="eS_6kq-HFucETP7qqi-i-105" vertex="1">
          <mxGeometry y="78" width="185" height="26" as="geometry" />
        </mxCell>
        <mxCell id="Y8DyDsqPOVaIqBGSUZzU-5" value="int taxRate" style="text;align=left;verticalAlign=top;spacingLeft=4;spacingRight=4;overflow=hidden;rotatable=0;points=[[0,0.5],[1,0.5]];portConstraint=eastwest;" parent="eS_6kq-HFucETP7qqi-i-105" vertex="1">
          <mxGeometry y="104" width="185" height="26" as="geometry" />
        </mxCell>
        <mxCell id="Y8DyDsqPOVaIqBGSUZzU-4" value="int totalAmount" style="text;align=left;verticalAlign=top;spacingLeft=4;spacingRight=4;overflow=hidden;rotatable=0;points=[[0,0.5],[1,0.5]];portConstraint=eastwest;" parent="eS_6kq-HFucETP7qqi-i-105" vertex="1">
          <mxGeometry y="130" width="185" height="26" as="geometry" />
        </mxCell>
        <mxCell id="eS_6kq-HFucETP7qqi-i-113" value="InvoiceDataFilterApiModel" style="swimlane;fontStyle=2;align=center;verticalAlign=top;childLayout=stackLayout;horizontal=1;startSize=26;horizontalStack=0;resizeParent=1;resizeLast=0;collapsible=1;marginBottom=0;rounded=0;shadow=0;strokeWidth=1;" parent="WIyWlLk6GJQsqaUBKTNV-1" vertex="1">
          <mxGeometry x="-2780" y="-1591" width="185" height="156" as="geometry">
            <mxRectangle x="230" y="140" width="160" height="26" as="alternateBounds" />
          </mxGeometry>
        </mxCell>
        <mxCell id="ApyK9dZCyS79xW809X-P-81" value="String InvoiceDataId" style="text;align=left;verticalAlign=top;spacingLeft=4;spacingRight=4;overflow=hidden;rotatable=0;points=[[0,0.5],[1,0.5]];portConstraint=eastwest;" parent="eS_6kq-HFucETP7qqi-i-113" vertex="1">
          <mxGeometry y="26" width="185" height="26" as="geometry" />
        </mxCell>
        <mxCell id="UdSAh6a9KgNJWOaCGTY9-4" value="int appointmentId" style="text;align=left;verticalAlign=top;spacingLeft=4;spacingRight=4;overflow=hidden;rotatable=0;points=[[0,0.5],[1,0.5]];portConstraint=eastwest;" vertex="1" parent="eS_6kq-HFucETP7qqi-i-113">
          <mxGeometry y="52" width="185" height="26" as="geometry" />
        </mxCell>
        <mxCell id="Y8DyDsqPOVaIqBGSUZzU-6" value="int subtotalamount" style="text;align=left;verticalAlign=top;spacingLeft=4;spacingRight=4;overflow=hidden;rotatable=0;points=[[0,0.5],[1,0.5]];portConstraint=eastwest;" parent="eS_6kq-HFucETP7qqi-i-113" vertex="1">
          <mxGeometry y="78" width="185" height="26" as="geometry" />
        </mxCell>
        <mxCell id="Y8DyDsqPOVaIqBGSUZzU-7" value="int totalAmount" style="text;align=left;verticalAlign=top;spacingLeft=4;spacingRight=4;overflow=hidden;rotatable=0;points=[[0,0.5],[1,0.5]];portConstraint=eastwest;" parent="eS_6kq-HFucETP7qqi-i-113" vertex="1">
          <mxGeometry y="104" width="185" height="26" as="geometry" />
        </mxCell>
        <mxCell id="Y8DyDsqPOVaIqBGSUZzU-8" value="int taxRate" style="text;align=left;verticalAlign=top;spacingLeft=4;spacingRight=4;overflow=hidden;rotatable=0;points=[[0,0.5],[1,0.5]];portConstraint=eastwest;" parent="eS_6kq-HFucETP7qqi-i-113" vertex="1">
          <mxGeometry y="130" width="185" height="26" as="geometry" />
        </mxCell>
        <mxCell id="eS_6kq-HFucETP7qqi-i-121" value="InvoiceDataEntity" style="swimlane;fontStyle=2;align=center;verticalAlign=top;childLayout=stackLayout;horizontal=1;startSize=26;horizontalStack=0;resizeParent=1;resizeLast=0;collapsible=1;marginBottom=0;rounded=0;shadow=0;strokeWidth=1;" parent="WIyWlLk6GJQsqaUBKTNV-1" vertex="1">
          <mxGeometry x="-1050" y="-1538" width="185" height="156" as="geometry">
            <mxRectangle x="230" y="140" width="160" height="26" as="alternateBounds" />
          </mxGeometry>
        </mxCell>
        <mxCell id="eS_6kq-HFucETP7qqi-i-122" value="String InvoiceDataId" style="text;align=left;verticalAlign=top;spacingLeft=4;spacingRight=4;overflow=hidden;rotatable=0;points=[[0,0.5],[1,0.5]];portConstraint=eastwest;" parent="eS_6kq-HFucETP7qqi-i-121" vertex="1">
          <mxGeometry y="26" width="185" height="26" as="geometry" />
        </mxCell>
        <mxCell id="UdSAh6a9KgNJWOaCGTY9-0" value="int appointmentId" style="text;align=left;verticalAlign=top;spacingLeft=4;spacingRight=4;overflow=hidden;rotatable=0;points=[[0,0.5],[1,0.5]];portConstraint=eastwest;" vertex="1" parent="eS_6kq-HFucETP7qqi-i-121">
          <mxGeometry y="52" width="185" height="26" as="geometry" />
        </mxCell>
        <mxCell id="Y8DyDsqPOVaIqBGSUZzU-15" value="int subtotalamount" style="text;align=left;verticalAlign=top;spacingLeft=4;spacingRight=4;overflow=hidden;rotatable=0;points=[[0,0.5],[1,0.5]];portConstraint=eastwest;" parent="eS_6kq-HFucETP7qqi-i-121" vertex="1">
          <mxGeometry y="78" width="185" height="26" as="geometry" />
        </mxCell>
        <mxCell id="Y8DyDsqPOVaIqBGSUZzU-16" value="int totalAmount" style="text;align=left;verticalAlign=top;spacingLeft=4;spacingRight=4;overflow=hidden;rotatable=0;points=[[0,0.5],[1,0.5]];portConstraint=eastwest;" parent="eS_6kq-HFucETP7qqi-i-121" vertex="1">
          <mxGeometry y="104" width="185" height="26" as="geometry" />
        </mxCell>
        <mxCell id="Y8DyDsqPOVaIqBGSUZzU-17" value="int taxRate" style="text;align=left;verticalAlign=top;spacingLeft=4;spacingRight=4;overflow=hidden;rotatable=0;points=[[0,0.5],[1,0.5]];portConstraint=eastwest;" parent="eS_6kq-HFucETP7qqi-i-121" vertex="1">
          <mxGeometry y="130" width="185" height="26" as="geometry" />
        </mxCell>
        <mxCell id="eS_6kq-HFucETP7qqi-i-129" value="PredicateBuilder&lt;T&gt;" style="swimlane;fontStyle=2;align=center;verticalAlign=top;childLayout=stackLayout;horizontal=1;startSize=26;horizontalStack=0;resizeParent=1;resizeLast=0;collapsible=1;marginBottom=0;rounded=0;shadow=0;strokeWidth=1;" parent="WIyWlLk6GJQsqaUBKTNV-1" vertex="1">
          <mxGeometry x="-420" y="-1170" width="220" height="86" as="geometry">
            <mxRectangle x="230" y="140" width="160" height="26" as="alternateBounds" />
          </mxGeometry>
        </mxCell>
        <mxCell id="eS_6kq-HFucETP7qqi-i-130" value="BooleanExpression getBooleanBuilder&#xa;(SimpleExpression&lt;T&gt; path, &#xa;SearchCriteria searchCriteria)" style="text;align=left;verticalAlign=top;spacingLeft=4;spacingRight=4;overflow=hidden;rotatable=0;points=[[0,0.5],[1,0.5]];portConstraint=eastwest;fillColor=none;" parent="eS_6kq-HFucETP7qqi-i-129" vertex="1">
          <mxGeometry y="26" width="220" height="54" as="geometry" />
        </mxCell>
        <mxCell id="eS_6kq-HFucETP7qqi-i-131" value="QueryField" style="swimlane;fontStyle=2;align=center;verticalAlign=top;childLayout=stackLayout;horizontal=1;startSize=26;horizontalStack=0;resizeParent=1;resizeLast=0;collapsible=1;marginBottom=0;rounded=0;shadow=0;strokeWidth=1;fillColor=#fff2cc;strokeColor=#d6b656;" parent="WIyWlLk6GJQsqaUBKTNV-1" vertex="1">
          <mxGeometry x="-1010" y="-1180" width="220" height="106" as="geometry">
            <mxRectangle x="230" y="140" width="160" height="26" as="alternateBounds" />
          </mxGeometry>
        </mxCell>
        <mxCell id="eS_6kq-HFucETP7qqi-i-132" value="String getFieldName()" style="text;align=left;verticalAlign=top;spacingLeft=4;spacingRight=4;overflow=hidden;rotatable=0;points=[[0,0.5],[1,0.5]];portConstraint=eastwest;fillColor=none;" parent="eS_6kq-HFucETP7qqi-i-131" vertex="1">
          <mxGeometry y="26" width="220" height="24" as="geometry" />
        </mxCell>
        <mxCell id="eS_6kq-HFucETP7qqi-i-133" value="void addToQuery(BooleanBuilder &#xa;booleanBuilder, SearchCriteria &#xa;searchCriteria)" style="text;align=left;verticalAlign=top;spacingLeft=4;spacingRight=4;overflow=hidden;rotatable=0;points=[[0,0.5],[1,0.5]];portConstraint=eastwest;fillColor=none;" parent="eS_6kq-HFucETP7qqi-i-131" vertex="1">
          <mxGeometry y="50" width="220" height="50" as="geometry" />
        </mxCell>
        <mxCell id="eS_6kq-HFucETP7qqi-i-246" style="edgeStyle=orthogonalEdgeStyle;rounded=0;orthogonalLoop=1;jettySize=auto;html=1;entryX=0;entryY=0.5;entryDx=0;entryDy=0;" parent="WIyWlLk6GJQsqaUBKTNV-1" source="eS_6kq-HFucETP7qqi-i-137" target="eS_6kq-HFucETP7qqi-i-130" edge="1">
          <mxGeometry relative="1" as="geometry">
            <mxPoint x="-434" y="-927" as="targetPoint" />
            <Array as="points">
              <mxPoint x="-460" y="-1005" />
              <mxPoint x="-460" y="-1117" />
            </Array>
          </mxGeometry>
        </mxCell>
        <mxCell id="eS_6kq-HFucETP7qqi-i-137" value="InvoiceDataStatusField" style="swimlane;fontStyle=2;align=center;verticalAlign=top;childLayout=stackLayout;horizontal=1;startSize=26;horizontalStack=0;resizeParent=1;resizeLast=0;collapsible=1;marginBottom=0;rounded=0;shadow=0;strokeWidth=1;" parent="WIyWlLk6GJQsqaUBKTNV-1" vertex="1">
          <mxGeometry x="-738" y="-1070" width="240" height="130" as="geometry">
            <mxRectangle x="230" y="140" width="160" height="26" as="alternateBounds" />
          </mxGeometry>
        </mxCell>
        <mxCell id="eS_6kq-HFucETP7qqi-i-138" value="PredicateBuilder&lt;String&gt; predicateBuilder" style="text;align=left;verticalAlign=top;spacingLeft=4;spacingRight=4;overflow=hidden;rotatable=0;points=[[0,0.5],[1,0.5]];portConstraint=eastwest;fillColor=none;" parent="eS_6kq-HFucETP7qqi-i-137" vertex="1">
          <mxGeometry y="26" width="240" height="22" as="geometry" />
        </mxCell>
        <mxCell id="eS_6kq-HFucETP7qqi-i-139" value="" style="line;html=1;strokeWidth=1;align=left;verticalAlign=middle;spacingTop=-1;spacingLeft=3;spacingRight=3;rotatable=0;labelPosition=right;points=[];portConstraint=eastwest;" parent="eS_6kq-HFucETP7qqi-i-137" vertex="1">
          <mxGeometry y="48" width="240" height="8" as="geometry" />
        </mxCell>
        <mxCell id="eS_6kq-HFucETP7qqi-i-135" value="String getFieldName()" style="text;align=left;verticalAlign=top;spacingLeft=4;spacingRight=4;overflow=hidden;rotatable=0;points=[[0,0.5],[1,0.5]];portConstraint=eastwest;fillColor=none;" parent="eS_6kq-HFucETP7qqi-i-137" vertex="1">
          <mxGeometry y="56" width="240" height="24" as="geometry" />
        </mxCell>
        <mxCell id="eS_6kq-HFucETP7qqi-i-136" value="void addToQuery(BooleanBuilder &#xa;booleanBuilder, SearchCriteria &#xa;searchCriteria)" style="text;align=left;verticalAlign=top;spacingLeft=4;spacingRight=4;overflow=hidden;rotatable=0;points=[[0,0.5],[1,0.5]];portConstraint=eastwest;fillColor=none;" parent="eS_6kq-HFucETP7qqi-i-137" vertex="1">
          <mxGeometry y="80" width="240" height="50" as="geometry" />
        </mxCell>
        <mxCell id="eS_6kq-HFucETP7qqi-i-141" value="InvoiceDataRepositorySpringJpa" style="swimlane;fontStyle=2;align=center;verticalAlign=top;childLayout=stackLayout;horizontal=1;startSize=26;horizontalStack=0;resizeParent=1;resizeLast=0;collapsible=1;marginBottom=0;rounded=0;shadow=0;strokeWidth=1;fillColor=#fff2cc;strokeColor=#d6b656;" parent="WIyWlLk6GJQsqaUBKTNV-1" vertex="1">
          <mxGeometry x="-1292" y="-1352" width="210" height="52" as="geometry">
            <mxRectangle x="230" y="140" width="160" height="26" as="alternateBounds" />
          </mxGeometry>
        </mxCell>
        <mxCell id="eS_6kq-HFucETP7qqi-i-256" style="edgeStyle=orthogonalEdgeStyle;rounded=0;orthogonalLoop=1;jettySize=auto;html=1;entryX=0.5;entryY=0;entryDx=0;entryDy=0;" parent="WIyWlLk6GJQsqaUBKTNV-1" source="eS_6kq-HFucETP7qqi-i-143" target="eS_6kq-HFucETP7qqi-i-113" edge="1">
          <mxGeometry relative="1" as="geometry" />
        </mxCell>
        <mxCell id="eS_6kq-HFucETP7qqi-i-257" style="edgeStyle=orthogonalEdgeStyle;rounded=0;orthogonalLoop=1;jettySize=auto;html=1;" parent="WIyWlLk6GJQsqaUBKTNV-1" source="eS_6kq-HFucETP7qqi-i-143" target="eS_6kq-HFucETP7qqi-i-105" edge="1">
          <mxGeometry relative="1" as="geometry" />
        </mxCell>
        <mxCell id="eS_6kq-HFucETP7qqi-i-258" style="edgeStyle=orthogonalEdgeStyle;rounded=0;orthogonalLoop=1;jettySize=auto;html=1;" parent="WIyWlLk6GJQsqaUBKTNV-1" source="eS_6kq-HFucETP7qqi-i-143" target="eS_6kq-HFucETP7qqi-i-82" edge="1">
          <mxGeometry relative="1" as="geometry" />
        </mxCell>
        <mxCell id="eS_6kq-HFucETP7qqi-i-260" style="edgeStyle=orthogonalEdgeStyle;rounded=0;orthogonalLoop=1;jettySize=auto;html=1;" parent="WIyWlLk6GJQsqaUBKTNV-1" source="eS_6kq-HFucETP7qqi-i-143" target="eS_6kq-HFucETP7qqi-i-121" edge="1">
          <mxGeometry relative="1" as="geometry" />
        </mxCell>
        <mxCell id="eS_6kq-HFucETP7qqi-i-143" value="InvoiceDataInfrastructureMapper" style="swimlane;fontStyle=2;align=center;verticalAlign=top;childLayout=stackLayout;horizontal=1;startSize=26;horizontalStack=0;resizeParent=1;resizeLast=0;collapsible=1;marginBottom=0;rounded=0;shadow=0;strokeWidth=1;fillColor=default;" parent="WIyWlLk6GJQsqaUBKTNV-1" vertex="1">
          <mxGeometry x="-2260" y="-1940" width="330" height="260" as="geometry">
            <mxRectangle x="230" y="140" width="160" height="26" as="alternateBounds" />
          </mxGeometry>
        </mxCell>
        <mxCell id="eS_6kq-HFucETP7qqi-i-145" value="InvoiceData map(InvoiceDataApiModel InvoiceDataApiModel);" style="text;align=left;verticalAlign=top;spacingLeft=4;spacingRight=4;overflow=hidden;rotatable=0;points=[[0,0.5],[1,0.5]];portConstraint=eastwest;fillColor=none;" parent="eS_6kq-HFucETP7qqi-i-143" vertex="1">
          <mxGeometry y="26" width="330" height="30" as="geometry" />
        </mxCell>
        <mxCell id="eS_6kq-HFucETP7qqi-i-146" value="List&lt;InvoiceDataApiModel&gt; map(List&lt;InvoiceData&gt; InvoiceDatas);" style="text;align=left;verticalAlign=top;spacingLeft=4;spacingRight=4;overflow=hidden;rotatable=0;points=[[0,0.5],[1,0.5]];portConstraint=eastwest;fillColor=none;" parent="eS_6kq-HFucETP7qqi-i-143" vertex="1">
          <mxGeometry y="56" width="330" height="30" as="geometry" />
        </mxCell>
        <mxCell id="eS_6kq-HFucETP7qqi-i-148" value="InvoiceDataApiModel map(InvoiceData InvoiceDatas);" style="text;align=left;verticalAlign=top;spacingLeft=4;spacingRight=4;overflow=hidden;rotatable=0;points=[[0,0.5],[1,0.5]];portConstraint=eastwest;fillColor=none;" parent="eS_6kq-HFucETP7qqi-i-143" vertex="1">
          <mxGeometry y="86" width="330" height="30" as="geometry" />
        </mxCell>
        <mxCell id="eS_6kq-HFucETP7qqi-i-147" value="List&lt;InvoiceData&gt; mapEntityList(List&lt;InvoiceDataEntity&gt; &#xa;InvoiceDataEntity);" style="text;align=left;verticalAlign=top;spacingLeft=4;spacingRight=4;overflow=hidden;rotatable=0;points=[[0,0.5],[1,0.5]];portConstraint=eastwest;fillColor=none;" parent="eS_6kq-HFucETP7qqi-i-143" vertex="1">
          <mxGeometry y="116" width="330" height="40" as="geometry" />
        </mxCell>
        <mxCell id="eS_6kq-HFucETP7qqi-i-149" value="InvoiceData map(InvoiceDataEntity InvoiceDataEntity);" style="text;align=left;verticalAlign=top;spacingLeft=4;spacingRight=4;overflow=hidden;rotatable=0;points=[[0,0.5],[1,0.5]];portConstraint=eastwest;fillColor=none;" parent="eS_6kq-HFucETP7qqi-i-143" vertex="1">
          <mxGeometry y="156" width="330" height="30" as="geometry" />
        </mxCell>
        <mxCell id="eS_6kq-HFucETP7qqi-i-150" value="InvoiceDataEntity mapToEntity(InvoiceData InvoiceData);" style="text;align=left;verticalAlign=top;spacingLeft=4;spacingRight=4;overflow=hidden;rotatable=0;points=[[0,0.5],[1,0.5]];portConstraint=eastwest;fillColor=none;" parent="eS_6kq-HFucETP7qqi-i-143" vertex="1">
          <mxGeometry y="186" width="330" height="30" as="geometry" />
        </mxCell>
        <mxCell id="eS_6kq-HFucETP7qqi-i-151" value="InvoiceData merge(InvoiceData newInvoiceDataData, &#xa;InvoiceData InvoiceData);" style="text;align=left;verticalAlign=top;spacingLeft=4;spacingRight=4;overflow=hidden;rotatable=0;points=[[0,0.5],[1,0.5]];portConstraint=eastwest;fillColor=none;" parent="eS_6kq-HFucETP7qqi-i-143" vertex="1">
          <mxGeometry y="216" width="330" height="30" as="geometry" />
        </mxCell>
        <mxCell id="eS_6kq-HFucETP7qqi-i-197" style="edgeStyle=orthogonalEdgeStyle;rounded=0;orthogonalLoop=1;jettySize=auto;html=1;entryX=0.5;entryY=1;entryDx=0;entryDy=0;endArrow=none;endFill=0;" parent="WIyWlLk6GJQsqaUBKTNV-1" source="eS_6kq-HFucETP7qqi-i-153" target="eS_6kq-HFucETP7qqi-i-141" edge="1">
          <mxGeometry relative="1" as="geometry" />
        </mxCell>
        <mxCell id="eS_6kq-HFucETP7qqi-i-237" style="edgeStyle=orthogonalEdgeStyle;rounded=0;orthogonalLoop=1;jettySize=auto;html=1;entryX=0;entryY=0.5;entryDx=0;entryDy=0;" parent="WIyWlLk6GJQsqaUBKTNV-1" source="eS_6kq-HFucETP7qqi-i-153" target="eS_6kq-HFucETP7qqi-i-133" edge="1">
          <mxGeometry relative="1" as="geometry" />
        </mxCell>
        <mxCell id="eS_6kq-HFucETP7qqi-i-153" value="InvoiceDataJpaRepository" style="swimlane;fontStyle=2;align=center;verticalAlign=top;childLayout=stackLayout;horizontal=1;startSize=26;horizontalStack=0;resizeParent=1;resizeLast=0;collapsible=1;marginBottom=0;rounded=0;shadow=0;strokeWidth=1;" parent="WIyWlLk6GJQsqaUBKTNV-1" vertex="1">
          <mxGeometry x="-1307" y="-1270" width="267" height="334" as="geometry">
            <mxRectangle x="230" y="140" width="160" height="26" as="alternateBounds" />
          </mxGeometry>
        </mxCell>
        <mxCell id="eS_6kq-HFucETP7qqi-i-154" value="List&lt;QueryField&gt; queryFields" style="text;align=left;verticalAlign=top;spacingLeft=4;spacingRight=4;overflow=hidden;rotatable=0;points=[[0,0.5],[1,0.5]];portConstraint=eastwest;fillColor=none;" parent="eS_6kq-HFucETP7qqi-i-153" vertex="1">
          <mxGeometry y="26" width="267" height="26" as="geometry" />
        </mxCell>
        <mxCell id="eS_6kq-HFucETP7qqi-i-157" value="Map&lt;String, QueryField&gt; queryFieldMap" style="text;align=left;verticalAlign=top;spacingLeft=4;spacingRight=4;overflow=hidden;rotatable=0;points=[[0,0.5],[1,0.5]];portConstraint=eastwest;fillColor=none;" parent="eS_6kq-HFucETP7qqi-i-153" vertex="1">
          <mxGeometry y="52" width="267" height="26" as="geometry" />
        </mxCell>
        <mxCell id="eS_6kq-HFucETP7qqi-i-158" value=" InvoiceDataRepositorySpringJpa &#xa;invoiceDataRepositorySpringJpa" style="text;align=left;verticalAlign=top;spacingLeft=4;spacingRight=4;overflow=hidden;rotatable=0;points=[[0,0.5],[1,0.5]];portConstraint=eastwest;fillColor=none;" parent="eS_6kq-HFucETP7qqi-i-153" vertex="1">
          <mxGeometry y="78" width="267" height="42" as="geometry" />
        </mxCell>
        <mxCell id="eS_6kq-HFucETP7qqi-i-159" value="InvoiceDataInfrastructureMapper mapper" style="text;align=left;verticalAlign=top;spacingLeft=4;spacingRight=4;overflow=hidden;rotatable=0;points=[[0,0.5],[1,0.5]];portConstraint=eastwest;fillColor=none;" parent="eS_6kq-HFucETP7qqi-i-153" vertex="1">
          <mxGeometry y="120" width="267" height="42" as="geometry" />
        </mxCell>
        <mxCell id="eS_6kq-HFucETP7qqi-i-155" value="" style="line;html=1;strokeWidth=1;align=left;verticalAlign=middle;spacingTop=-1;spacingLeft=3;spacingRight=3;rotatable=0;labelPosition=right;points=[];portConstraint=eastwest;" parent="eS_6kq-HFucETP7qqi-i-153" vertex="1">
          <mxGeometry y="162" width="267" height="8" as="geometry" />
        </mxCell>
        <mxCell id="eS_6kq-HFucETP7qqi-i-156" value="save(InvoiceData invoiceData)" style="text;align=left;verticalAlign=top;spacingLeft=4;spacingRight=4;overflow=hidden;rotatable=0;points=[[0,0.5],[1,0.5]];portConstraint=eastwest;" parent="eS_6kq-HFucETP7qqi-i-153" vertex="1">
          <mxGeometry y="170" width="267" height="26" as="geometry" />
        </mxCell>
        <mxCell id="eS_6kq-HFucETP7qqi-i-162" value="void deleteById(String id)" style="text;align=left;verticalAlign=top;spacingLeft=4;spacingRight=4;overflow=hidden;rotatable=0;points=[[0,0.5],[1,0.5]];portConstraint=eastwest;fillColor=none;" parent="eS_6kq-HFucETP7qqi-i-153" vertex="1">
          <mxGeometry y="196" width="267" height="26" as="geometry" />
        </mxCell>
        <mxCell id="eS_6kq-HFucETP7qqi-i-161" value="Optional&lt;InvoiceData&gt; &#xa;findById(String id)" style="text;align=left;verticalAlign=top;spacingLeft=4;spacingRight=4;overflow=hidden;rotatable=0;points=[[0,0.5],[1,0.5]];portConstraint=eastwest;fillColor=none;" parent="eS_6kq-HFucETP7qqi-i-153" vertex="1">
          <mxGeometry y="222" width="267" height="40" as="geometry" />
        </mxCell>
        <mxCell id="eS_6kq-HFucETP7qqi-i-163" value="InvoiceData merge(InvoiceData newInvoiceData, InvoiceData InvoiceData)" style="text;align=left;verticalAlign=top;spacingLeft=4;spacingRight=4;overflow=hidden;rotatable=0;points=[[0,0.5],[1,0.5]];portConstraint=eastwest;fillColor=none;" parent="eS_6kq-HFucETP7qqi-i-153" vertex="1">
          <mxGeometry y="262" width="267" height="28" as="geometry" />
        </mxCell>
        <mxCell id="eS_6kq-HFucETP7qqi-i-160" value="List&lt;InvoiceData&gt; findByCriteria&#xa;(List&lt;SearchCriteria&gt; filters)" style="text;align=left;verticalAlign=top;spacingLeft=4;spacingRight=4;overflow=hidden;rotatable=0;points=[[0,0.5],[1,0.5]];portConstraint=eastwest;fillColor=none;" parent="eS_6kq-HFucETP7qqi-i-153" vertex="1">
          <mxGeometry y="290" width="267" height="44" as="geometry" />
        </mxCell>
        <mxCell id="eS_6kq-HFucETP7qqi-i-164" value="InvoiceDataController" style="swimlane;fontStyle=2;align=center;verticalAlign=top;childLayout=stackLayout;horizontal=1;startSize=26;horizontalStack=0;resizeParent=1;resizeLast=0;collapsible=1;marginBottom=0;rounded=0;shadow=0;strokeWidth=1;" parent="WIyWlLk6GJQsqaUBKTNV-1" vertex="1">
          <mxGeometry x="-2770" y="-1300" width="310" height="404" as="geometry">
            <mxRectangle x="230" y="140" width="160" height="26" as="alternateBounds" />
          </mxGeometry>
        </mxCell>
        <mxCell id="eS_6kq-HFucETP7qqi-i-168" value="InvoiceDataInfrastructureMapper mapper" style="text;align=left;verticalAlign=top;spacingLeft=4;spacingRight=4;overflow=hidden;rotatable=0;points=[[0,0.5],[1,0.5]];portConstraint=eastwest;fillColor=none;" parent="eS_6kq-HFucETP7qqi-i-164" vertex="1">
          <mxGeometry y="26" width="310" height="24" as="geometry" />
        </mxCell>
        <mxCell id="eS_6kq-HFucETP7qqi-i-166" value="FindInvoiceDatasUseCase findInvoiceDatasUseCase" style="text;align=left;verticalAlign=top;spacingLeft=4;spacingRight=4;overflow=hidden;rotatable=0;points=[[0,0.5],[1,0.5]];portConstraint=eastwest;fillColor=none;" parent="eS_6kq-HFucETP7qqi-i-164" vertex="1">
          <mxGeometry y="50" width="310" height="26" as="geometry" />
        </mxCell>
        <mxCell id="eS_6kq-HFucETP7qqi-i-167" value="GetInvoiceDataByIdUseCase getInvoiceData&#xa;ByIdUseCase" style="text;align=left;verticalAlign=top;spacingLeft=4;spacingRight=4;overflow=hidden;rotatable=0;points=[[0,0.5],[1,0.5]];portConstraint=eastwest;fillColor=none;" parent="eS_6kq-HFucETP7qqi-i-164" vertex="1">
          <mxGeometry y="76" width="310" height="44" as="geometry" />
        </mxCell>
        <mxCell id="eS_6kq-HFucETP7qqi-i-175" value="DeleteInvoiceDataUseCase deleteInvoiceDataUseCase" style="text;align=left;verticalAlign=top;spacingLeft=4;spacingRight=4;overflow=hidden;rotatable=0;points=[[0,0.5],[1,0.5]];portConstraint=eastwest;fillColor=none;" parent="eS_6kq-HFucETP7qqi-i-164" vertex="1">
          <mxGeometry y="120" width="310" height="30" as="geometry" />
        </mxCell>
        <mxCell id="eS_6kq-HFucETP7qqi-i-176" value="CreateInvoiceDataUseCase createInvoiceDataUseCase" style="text;align=left;verticalAlign=top;spacingLeft=4;spacingRight=4;overflow=hidden;rotatable=0;points=[[0,0.5],[1,0.5]];portConstraint=eastwest;fillColor=none;" parent="eS_6kq-HFucETP7qqi-i-164" vertex="1">
          <mxGeometry y="150" width="310" height="30" as="geometry" />
        </mxCell>
        <mxCell id="eS_6kq-HFucETP7qqi-i-177" value="ModifyInvoiceDatasUseCase modifyInvoiceDatasUseCase" style="text;align=left;verticalAlign=top;spacingLeft=4;spacingRight=4;overflow=hidden;rotatable=0;points=[[0,0.5],[1,0.5]];portConstraint=eastwest;fillColor=none;" parent="eS_6kq-HFucETP7qqi-i-164" vertex="1">
          <mxGeometry y="180" width="310" height="32" as="geometry" />
        </mxCell>
        <mxCell id="eS_6kq-HFucETP7qqi-i-169" value="" style="line;html=1;strokeWidth=1;align=left;verticalAlign=middle;spacingTop=-1;spacingLeft=3;spacingRight=3;rotatable=0;labelPosition=right;points=[];portConstraint=eastwest;" parent="eS_6kq-HFucETP7qqi-i-164" vertex="1">
          <mxGeometry y="212" width="310" height="8" as="geometry" />
        </mxCell>
        <mxCell id="eS_6kq-HFucETP7qqi-i-170" value="save(InvoiceData invoiceData)" style="text;align=left;verticalAlign=top;spacingLeft=4;spacingRight=4;overflow=hidden;rotatable=0;points=[[0,0.5],[1,0.5]];portConstraint=eastwest;" parent="eS_6kq-HFucETP7qqi-i-164" vertex="1">
          <mxGeometry y="220" width="310" height="26" as="geometry" />
        </mxCell>
        <mxCell id="eS_6kq-HFucETP7qqi-i-171" value="void deleteById(String id);" style="text;align=left;verticalAlign=top;spacingLeft=4;spacingRight=4;overflow=hidden;rotatable=0;points=[[0,0.5],[1,0.5]];portConstraint=eastwest;fillColor=none;" parent="eS_6kq-HFucETP7qqi-i-164" vertex="1">
          <mxGeometry y="246" width="310" height="26" as="geometry" />
        </mxCell>
        <mxCell id="eS_6kq-HFucETP7qqi-i-172" value="Optional&lt;InvoiceData&gt; &#xa;findById(String id);" style="text;align=left;verticalAlign=top;spacingLeft=4;spacingRight=4;overflow=hidden;rotatable=0;points=[[0,0.5],[1,0.5]];portConstraint=eastwest;fillColor=none;" parent="eS_6kq-HFucETP7qqi-i-164" vertex="1">
          <mxGeometry y="272" width="310" height="40" as="geometry" />
        </mxCell>
        <mxCell id="eS_6kq-HFucETP7qqi-i-173" value="InvoiceData merge(InvoiceData &#xa;newInvoiceData, InvoiceData invoiceData);" style="text;align=left;verticalAlign=top;spacingLeft=4;spacingRight=4;overflow=hidden;rotatable=0;points=[[0,0.5],[1,0.5]];portConstraint=eastwest;fillColor=none;" parent="eS_6kq-HFucETP7qqi-i-164" vertex="1">
          <mxGeometry y="312" width="310" height="48" as="geometry" />
        </mxCell>
        <mxCell id="eS_6kq-HFucETP7qqi-i-174" value="List&lt;InvoiceData&gt; findByCriteria&#xa;(List&lt;SearchCriteria&gt; filters);" style="text;align=left;verticalAlign=top;spacingLeft=4;spacingRight=4;overflow=hidden;rotatable=0;points=[[0,0.5],[1,0.5]];portConstraint=eastwest;fillColor=none;" parent="eS_6kq-HFucETP7qqi-i-164" vertex="1">
          <mxGeometry y="360" width="310" height="44" as="geometry" />
        </mxCell>
        <mxCell id="eS_6kq-HFucETP7qqi-i-182" style="edgeStyle=orthogonalEdgeStyle;rounded=0;orthogonalLoop=1;jettySize=auto;html=1;entryX=-0.001;entryY=1.126;entryDx=0;entryDy=0;entryPerimeter=0;endArrow=none;endFill=0;startArrow=block;startFill=0;" parent="WIyWlLk6GJQsqaUBKTNV-1" source="eS_6kq-HFucETP7qqi-i-38" target="eS_6kq-HFucETP7qqi-i-15" edge="1">
          <mxGeometry relative="1" as="geometry" />
        </mxCell>
        <mxCell id="eS_6kq-HFucETP7qqi-i-183" style="edgeStyle=orthogonalEdgeStyle;rounded=0;orthogonalLoop=1;jettySize=auto;html=1;entryX=-0.008;entryY=-0.118;entryDx=0;entryDy=0;entryPerimeter=0;startArrow=block;startFill=0;endArrow=none;endFill=0;" parent="WIyWlLk6GJQsqaUBKTNV-1" source="eS_6kq-HFucETP7qqi-i-34" target="eS_6kq-HFucETP7qqi-i-13" edge="1">
          <mxGeometry relative="1" as="geometry" />
        </mxCell>
        <mxCell id="eS_6kq-HFucETP7qqi-i-184" style="edgeStyle=orthogonalEdgeStyle;rounded=0;orthogonalLoop=1;jettySize=auto;html=1;entryX=-0.005;entryY=-0.112;entryDx=0;entryDy=0;entryPerimeter=0;startArrow=block;startFill=0;endArrow=none;endFill=0;" parent="WIyWlLk6GJQsqaUBKTNV-1" source="eS_6kq-HFucETP7qqi-i-30" target="eS_6kq-HFucETP7qqi-i-9" edge="1">
          <mxGeometry relative="1" as="geometry" />
        </mxCell>
        <mxCell id="eS_6kq-HFucETP7qqi-i-185" style="edgeStyle=orthogonalEdgeStyle;rounded=0;orthogonalLoop=1;jettySize=auto;html=1;entryX=-0.003;entryY=-0.051;entryDx=0;entryDy=0;entryPerimeter=0;startArrow=block;startFill=0;endArrow=none;endFill=0;" parent="WIyWlLk6GJQsqaUBKTNV-1" source="eS_6kq-HFucETP7qqi-i-26" target="eS_6kq-HFucETP7qqi-i-5" edge="1">
          <mxGeometry relative="1" as="geometry" />
        </mxCell>
        <mxCell id="eS_6kq-HFucETP7qqi-i-186" style="edgeStyle=orthogonalEdgeStyle;rounded=0;orthogonalLoop=1;jettySize=auto;html=1;entryX=0;entryY=0.5;entryDx=0;entryDy=0;" parent="WIyWlLk6GJQsqaUBKTNV-1" source="eS_6kq-HFucETP7qqi-i-175" target="eS_6kq-HFucETP7qqi-i-30" edge="1">
          <mxGeometry relative="1" as="geometry" />
        </mxCell>
        <mxCell id="eS_6kq-HFucETP7qqi-i-187" style="edgeStyle=orthogonalEdgeStyle;rounded=0;orthogonalLoop=1;jettySize=auto;html=1;exitX=1;exitY=0.5;exitDx=0;exitDy=0;entryX=0;entryY=0.5;entryDx=0;entryDy=0;" parent="WIyWlLk6GJQsqaUBKTNV-1" source="eS_6kq-HFucETP7qqi-i-166" target="eS_6kq-HFucETP7qqi-i-26" edge="1">
          <mxGeometry relative="1" as="geometry" />
        </mxCell>
        <mxCell id="eS_6kq-HFucETP7qqi-i-188" style="edgeStyle=orthogonalEdgeStyle;rounded=0;orthogonalLoop=1;jettySize=auto;html=1;exitX=1;exitY=0.5;exitDx=0;exitDy=0;entryX=-0.014;entryY=0.235;entryDx=0;entryDy=0;entryPerimeter=0;" parent="WIyWlLk6GJQsqaUBKTNV-1" source="eS_6kq-HFucETP7qqi-i-177" target="eS_6kq-HFucETP7qqi-i-34" edge="1">
          <mxGeometry relative="1" as="geometry" />
        </mxCell>
        <mxCell id="eS_6kq-HFucETP7qqi-i-189" style="edgeStyle=orthogonalEdgeStyle;rounded=0;orthogonalLoop=1;jettySize=auto;html=1;exitX=1;exitY=0.5;exitDx=0;exitDy=0;entryX=0.003;entryY=0.163;entryDx=0;entryDy=0;entryPerimeter=0;" parent="WIyWlLk6GJQsqaUBKTNV-1" source="eS_6kq-HFucETP7qqi-i-172" target="eS_6kq-HFucETP7qqi-i-38" edge="1">
          <mxGeometry relative="1" as="geometry" />
        </mxCell>
        <mxCell id="eS_6kq-HFucETP7qqi-i-190" style="edgeStyle=orthogonalEdgeStyle;rounded=0;orthogonalLoop=1;jettySize=auto;html=1;exitX=1;exitY=0.5;exitDx=0;exitDy=0;entryX=0;entryY=0.5;entryDx=0;entryDy=0;" parent="WIyWlLk6GJQsqaUBKTNV-1" source="eS_6kq-HFucETP7qqi-i-174" target="eS_6kq-HFucETP7qqi-i-43" edge="1">
          <mxGeometry relative="1" as="geometry" />
        </mxCell>
        <mxCell id="eS_6kq-HFucETP7qqi-i-192" style="edgeStyle=orthogonalEdgeStyle;rounded=0;orthogonalLoop=1;jettySize=auto;html=1;entryX=0;entryY=0.5;entryDx=0;entryDy=0;endArrow=none;endFill=0;" parent="WIyWlLk6GJQsqaUBKTNV-1" source="eS_6kq-HFucETP7qqi-i-1" target="ApyK9dZCyS79xW809X-P-88" edge="1">
          <mxGeometry relative="1" as="geometry">
            <Array as="points">
              <mxPoint x="-1730" y="-1344" />
              <mxPoint x="-1730" y="-1120" />
              <mxPoint x="-1610" y="-1120" />
            </Array>
            <mxPoint x="-1670" y="-1140" as="targetPoint" />
          </mxGeometry>
        </mxCell>
        <mxCell id="eS_6kq-HFucETP7qqi-i-193" style="edgeStyle=orthogonalEdgeStyle;rounded=0;orthogonalLoop=1;jettySize=auto;html=1;exitX=0.99;exitY=-0.065;exitDx=0;exitDy=0;exitPerimeter=0;entryX=-0.005;entryY=0.814;entryDx=0;entryDy=0;endArrow=none;endFill=0;entryPerimeter=0;" parent="WIyWlLk6GJQsqaUBKTNV-1" source="eS_6kq-HFucETP7qqi-i-9" target="ApyK9dZCyS79xW809X-P-88" edge="1">
          <mxGeometry relative="1" as="geometry">
            <mxPoint x="-1670" y="-1116.9999999999998" as="targetPoint" />
            <Array as="points">
              <mxPoint x="-1730" y="-1195" />
              <mxPoint x="-1730" y="-1120" />
              <mxPoint x="-1610" y="-1120" />
              <mxPoint x="-1610" y="-1116" />
            </Array>
          </mxGeometry>
        </mxCell>
        <mxCell id="eS_6kq-HFucETP7qqi-i-198" style="edgeStyle=orthogonalEdgeStyle;rounded=0;orthogonalLoop=1;jettySize=auto;html=1;entryX=-0.007;entryY=0.7;entryDx=0;entryDy=0;entryPerimeter=0;startArrow=block;startFill=0;endArrow=none;endFill=0;exitX=1.001;exitY=0.214;exitDx=0;exitDy=0;exitPerimeter=0;" parent="WIyWlLk6GJQsqaUBKTNV-1" source="ApyK9dZCyS79xW809X-P-88" target="eS_6kq-HFucETP7qqi-i-159" edge="1">
          <mxGeometry relative="1" as="geometry">
            <mxPoint x="-1420" y="-1130" as="sourcePoint" />
          </mxGeometry>
        </mxCell>
        <mxCell id="eS_6kq-HFucETP7qqi-i-204" style="edgeStyle=orthogonalEdgeStyle;rounded=0;orthogonalLoop=1;jettySize=auto;html=1;entryX=0.539;entryY=0.001;entryDx=0;entryDy=0;entryPerimeter=0;endArrow=none;endFill=0;startArrow=classic;startFill=1;" parent="WIyWlLk6GJQsqaUBKTNV-1" source="eS_6kq-HFucETP7qqi-i-113" target="eS_6kq-HFucETP7qqi-i-164" edge="1">
          <mxGeometry relative="1" as="geometry" />
        </mxCell>
        <mxCell id="eS_6kq-HFucETP7qqi-i-205" style="edgeStyle=orthogonalEdgeStyle;rounded=0;orthogonalLoop=1;jettySize=auto;html=1;entryX=0.539;entryY=0.009;entryDx=0;entryDy=0;entryPerimeter=0;startArrow=classic;startFill=1;endArrow=none;endFill=0;" parent="WIyWlLk6GJQsqaUBKTNV-1" source="eS_6kq-HFucETP7qqi-i-105" target="eS_6kq-HFucETP7qqi-i-164" edge="1">
          <mxGeometry relative="1" as="geometry" />
        </mxCell>
        <mxCell id="eS_6kq-HFucETP7qqi-i-209" style="edgeStyle=orthogonalEdgeStyle;rounded=0;orthogonalLoop=1;jettySize=auto;html=1;entryX=0.5;entryY=1;entryDx=0;entryDy=0;" parent="WIyWlLk6GJQsqaUBKTNV-1" source="eS_6kq-HFucETP7qqi-i-141" target="eS_6kq-HFucETP7qqi-i-121" edge="1">
          <mxGeometry relative="1" as="geometry">
            <mxPoint x="-1047.5949999999998" y="-1436.522" as="targetPoint" />
          </mxGeometry>
        </mxCell>
        <mxCell id="ApyK9dZCyS79xW809X-P-50" style="edgeStyle=orthogonalEdgeStyle;rounded=0;orthogonalLoop=1;jettySize=auto;html=1;entryX=1;entryY=0.5;entryDx=0;entryDy=0;endArrow=block;endFill=0;" parent="WIyWlLk6GJQsqaUBKTNV-1" source="eS_6kq-HFucETP7qqi-i-222" target="eS_6kq-HFucETP7qqi-i-133" edge="1">
          <mxGeometry relative="1" as="geometry" />
        </mxCell>
        <mxCell id="eS_6kq-HFucETP7qqi-i-222" value="InvoiceDataEndDateField" style="swimlane;fontStyle=2;align=center;verticalAlign=top;childLayout=stackLayout;horizontal=1;startSize=26;horizontalStack=0;resizeParent=1;resizeLast=0;collapsible=1;marginBottom=0;rounded=0;shadow=0;strokeWidth=1;" parent="WIyWlLk6GJQsqaUBKTNV-1" vertex="1">
          <mxGeometry x="-740" y="-1214" width="240" height="130" as="geometry">
            <mxRectangle x="230" y="140" width="160" height="26" as="alternateBounds" />
          </mxGeometry>
        </mxCell>
        <mxCell id="eS_6kq-HFucETP7qqi-i-223" value="PredicateBuilder&lt;String&gt; predicateBuilder" style="text;align=left;verticalAlign=top;spacingLeft=4;spacingRight=4;overflow=hidden;rotatable=0;points=[[0,0.5],[1,0.5]];portConstraint=eastwest;fillColor=none;" parent="eS_6kq-HFucETP7qqi-i-222" vertex="1">
          <mxGeometry y="26" width="240" height="22" as="geometry" />
        </mxCell>
        <mxCell id="eS_6kq-HFucETP7qqi-i-224" value="" style="line;html=1;strokeWidth=1;align=left;verticalAlign=middle;spacingTop=-1;spacingLeft=3;spacingRight=3;rotatable=0;labelPosition=right;points=[];portConstraint=eastwest;" parent="eS_6kq-HFucETP7qqi-i-222" vertex="1">
          <mxGeometry y="48" width="240" height="8" as="geometry" />
        </mxCell>
        <mxCell id="eS_6kq-HFucETP7qqi-i-225" value="String getFieldName()" style="text;align=left;verticalAlign=top;spacingLeft=4;spacingRight=4;overflow=hidden;rotatable=0;points=[[0,0.5],[1,0.5]];portConstraint=eastwest;fillColor=none;" parent="eS_6kq-HFucETP7qqi-i-222" vertex="1">
          <mxGeometry y="56" width="240" height="24" as="geometry" />
        </mxCell>
        <mxCell id="eS_6kq-HFucETP7qqi-i-226" value="void addToQuery(BooleanBuilder &#xa;booleanBuilder, SearchCriteria &#xa;searchCriteria)" style="text;align=left;verticalAlign=top;spacingLeft=4;spacingRight=4;overflow=hidden;rotatable=0;points=[[0,0.5],[1,0.5]];portConstraint=eastwest;fillColor=none;" parent="eS_6kq-HFucETP7qqi-i-222" vertex="1">
          <mxGeometry y="80" width="240" height="50" as="geometry" />
        </mxCell>
        <mxCell id="eS_6kq-HFucETP7qqi-i-232" value="InvoiceDataStartDateField" style="swimlane;fontStyle=2;align=center;verticalAlign=top;childLayout=stackLayout;horizontal=1;startSize=26;horizontalStack=0;resizeParent=1;resizeLast=0;collapsible=1;marginBottom=0;rounded=0;shadow=0;strokeWidth=1;" parent="WIyWlLk6GJQsqaUBKTNV-1" vertex="1">
          <mxGeometry x="-740" y="-1360" width="240" height="130" as="geometry">
            <mxRectangle x="230" y="140" width="160" height="26" as="alternateBounds" />
          </mxGeometry>
        </mxCell>
        <mxCell id="eS_6kq-HFucETP7qqi-i-233" value="PredicateBuilder&lt;String&gt; predicateBuilder" style="text;align=left;verticalAlign=top;spacingLeft=4;spacingRight=4;overflow=hidden;rotatable=0;points=[[0,0.5],[1,0.5]];portConstraint=eastwest;fillColor=none;" parent="eS_6kq-HFucETP7qqi-i-232" vertex="1">
          <mxGeometry y="26" width="240" height="22" as="geometry" />
        </mxCell>
        <mxCell id="eS_6kq-HFucETP7qqi-i-234" value="" style="line;html=1;strokeWidth=1;align=left;verticalAlign=middle;spacingTop=-1;spacingLeft=3;spacingRight=3;rotatable=0;labelPosition=right;points=[];portConstraint=eastwest;" parent="eS_6kq-HFucETP7qqi-i-232" vertex="1">
          <mxGeometry y="48" width="240" height="8" as="geometry" />
        </mxCell>
        <mxCell id="eS_6kq-HFucETP7qqi-i-235" value="String getFieldName()" style="text;align=left;verticalAlign=top;spacingLeft=4;spacingRight=4;overflow=hidden;rotatable=0;points=[[0,0.5],[1,0.5]];portConstraint=eastwest;fillColor=none;" parent="eS_6kq-HFucETP7qqi-i-232" vertex="1">
          <mxGeometry y="56" width="240" height="24" as="geometry" />
        </mxCell>
        <mxCell id="eS_6kq-HFucETP7qqi-i-236" value="void addToQuery(BooleanBuilder &#xa;booleanBuilder, SearchCriteria &#xa;searchCriteria);" style="text;align=left;verticalAlign=top;spacingLeft=4;spacingRight=4;overflow=hidden;rotatable=0;points=[[0,0.5],[1,0.5]];portConstraint=eastwest;fillColor=none;" parent="eS_6kq-HFucETP7qqi-i-232" vertex="1">
          <mxGeometry y="80" width="240" height="50" as="geometry" />
        </mxCell>
        <mxCell id="eS_6kq-HFucETP7qqi-i-238" style="edgeStyle=orthogonalEdgeStyle;rounded=0;orthogonalLoop=1;jettySize=auto;html=1;entryX=-0.011;entryY=0.065;entryDx=0;entryDy=0;entryPerimeter=0;endArrow=none;endFill=0;startArrow=block;startFill=0;" parent="WIyWlLk6GJQsqaUBKTNV-1" target="eS_6kq-HFucETP7qqi-i-236" edge="1">
          <mxGeometry relative="1" as="geometry">
            <Array as="points">
              <mxPoint x="-920" y="-1280" />
              <mxPoint x="-743" y="-1280" />
            </Array>
            <mxPoint x="-920" y="-1180" as="sourcePoint" />
          </mxGeometry>
        </mxCell>
        <mxCell id="eS_6kq-HFucETP7qqi-i-240" style="edgeStyle=orthogonalEdgeStyle;rounded=0;orthogonalLoop=1;jettySize=auto;html=1;entryX=0.007;entryY=0.141;entryDx=0;entryDy=0;entryPerimeter=0;endArrow=none;endFill=0;startArrow=block;startFill=0;exitX=0.5;exitY=1;exitDx=0;exitDy=0;" parent="WIyWlLk6GJQsqaUBKTNV-1" source="eS_6kq-HFucETP7qqi-i-131" target="eS_6kq-HFucETP7qqi-i-136" edge="1">
          <mxGeometry relative="1" as="geometry">
            <Array as="points">
              <mxPoint x="-920" y="-983" />
            </Array>
          </mxGeometry>
        </mxCell>
        <mxCell id="eS_6kq-HFucETP7qqi-i-244" style="edgeStyle=orthogonalEdgeStyle;rounded=0;orthogonalLoop=1;jettySize=auto;html=1;entryX=0;entryY=0.5;entryDx=0;entryDy=0;" parent="WIyWlLk6GJQsqaUBKTNV-1" source="eS_6kq-HFucETP7qqi-i-236" target="eS_6kq-HFucETP7qqi-i-130" edge="1">
          <mxGeometry relative="1" as="geometry">
            <mxPoint x="-430" y="-1120" as="targetPoint" />
          </mxGeometry>
        </mxCell>
        <mxCell id="eS_6kq-HFucETP7qqi-i-245" style="edgeStyle=orthogonalEdgeStyle;rounded=0;orthogonalLoop=1;jettySize=auto;html=1;entryX=0;entryY=0.5;entryDx=0;entryDy=0;" parent="WIyWlLk6GJQsqaUBKTNV-1" source="eS_6kq-HFucETP7qqi-i-225" target="eS_6kq-HFucETP7qqi-i-130" edge="1">
          <mxGeometry relative="1" as="geometry">
            <mxPoint x="-434" y="-927" as="targetPoint" />
          </mxGeometry>
        </mxCell>
        <mxCell id="eS_6kq-HFucETP7qqi-i-259" style="edgeStyle=orthogonalEdgeStyle;rounded=0;orthogonalLoop=1;jettySize=auto;html=1;entryX=0.446;entryY=0.005;entryDx=0;entryDy=0;entryPerimeter=0;" parent="WIyWlLk6GJQsqaUBKTNV-1" source="eS_6kq-HFucETP7qqi-i-143" target="eS_6kq-HFucETP7qqi-i-89" edge="1">
          <mxGeometry relative="1" as="geometry" />
        </mxCell>
        <mxCell id="eS_6kq-HFucETP7qqi-i-262" style="edgeStyle=orthogonalEdgeStyle;rounded=0;orthogonalLoop=1;jettySize=auto;html=1;entryX=1;entryY=0.5;entryDx=0;entryDy=0;endArrow=block;endFill=0;" parent="WIyWlLk6GJQsqaUBKTNV-1" source="eS_6kq-HFucETP7qqi-i-21" target="eS_6kq-HFucETP7qqi-i-43" edge="1">
          <mxGeometry relative="1" as="geometry" />
        </mxCell>
        <mxCell id="ApyK9dZCyS79xW809X-P-20" style="edgeStyle=orthogonalEdgeStyle;rounded=0;orthogonalLoop=1;jettySize=auto;html=1;entryX=0.501;entryY=0.031;entryDx=0;entryDy=0;entryPerimeter=0;endArrow=none;endFill=0;startArrow=none;startFill=0;" parent="WIyWlLk6GJQsqaUBKTNV-1" source="eS_6kq-HFucETP7qqi-i-44" target="eS_6kq-HFucETP7qqi-i-76" edge="1">
          <mxGeometry relative="1" as="geometry" />
        </mxCell>
        <mxCell id="ApyK9dZCyS79xW809X-P-51" value="Status" style="swimlane;fontStyle=2;align=center;verticalAlign=top;childLayout=stackLayout;horizontal=1;startSize=26;horizontalStack=0;resizeParent=1;resizeLast=0;collapsible=1;marginBottom=0;rounded=0;shadow=0;strokeWidth=1;" parent="WIyWlLk6GJQsqaUBKTNV-1" vertex="1">
          <mxGeometry x="-800" y="-1538" width="185" height="108" as="geometry">
            <mxRectangle x="230" y="140" width="160" height="26" as="alternateBounds" />
          </mxGeometry>
        </mxCell>
        <mxCell id="ApyK9dZCyS79xW809X-P-52" value="PENDING" style="text;align=left;verticalAlign=top;spacingLeft=4;spacingRight=4;overflow=hidden;rotatable=0;points=[[0,0.5],[1,0.5]];portConstraint=eastwest;" parent="ApyK9dZCyS79xW809X-P-51" vertex="1">
          <mxGeometry y="26" width="185" height="26" as="geometry" />
        </mxCell>
        <mxCell id="ApyK9dZCyS79xW809X-P-53" value="CANCELLED" style="text;align=left;verticalAlign=top;spacingLeft=4;spacingRight=4;overflow=hidden;rotatable=0;points=[[0,0.5],[1,0.5]];portConstraint=eastwest;" parent="ApyK9dZCyS79xW809X-P-51" vertex="1">
          <mxGeometry y="52" width="185" height="26" as="geometry" />
        </mxCell>
        <mxCell id="ApyK9dZCyS79xW809X-P-54" value="COMPELETED" style="text;align=left;verticalAlign=top;spacingLeft=4;spacingRight=4;overflow=hidden;rotatable=0;points=[[0,0.5],[1,0.5]];portConstraint=eastwest;" parent="ApyK9dZCyS79xW809X-P-51" vertex="1">
          <mxGeometry y="78" width="185" height="26" as="geometry" />
        </mxCell>
        <mxCell id="ApyK9dZCyS79xW809X-P-56" style="edgeStyle=orthogonalEdgeStyle;rounded=0;orthogonalLoop=1;jettySize=auto;html=1;entryX=0;entryY=0.5;entryDx=0;entryDy=0;" parent="WIyWlLk6GJQsqaUBKTNV-1" target="ApyK9dZCyS79xW809X-P-53" edge="1">
          <mxGeometry relative="1" as="geometry">
            <mxPoint x="-865" y="-1473" as="sourcePoint" />
          </mxGeometry>
        </mxCell>
        <mxCell id="ApyK9dZCyS79xW809X-P-85" value="GenericRepository&lt;T&gt;" style="swimlane;fontStyle=2;align=center;verticalAlign=top;childLayout=stackLayout;horizontal=1;startSize=26;horizontalStack=0;resizeParent=1;resizeLast=0;collapsible=1;marginBottom=0;rounded=0;shadow=0;strokeWidth=1;fillColor=#fff2cc;strokeColor=#d6b656;" parent="WIyWlLk6GJQsqaUBKTNV-1" vertex="1">
          <mxGeometry x="-1610" y="-1247" width="185" height="240" as="geometry">
            <mxRectangle x="230" y="140" width="160" height="26" as="alternateBounds" />
          </mxGeometry>
        </mxCell>
        <mxCell id="ApyK9dZCyS79xW809X-P-86" value="List&lt;T&gt; findByCriteria&#xa;(List&lt;SearchCriteria&gt; filters)" style="text;align=left;verticalAlign=top;spacingLeft=4;spacingRight=4;overflow=hidden;rotatable=0;points=[[0,0.5],[1,0.5]];portConstraint=eastwest;fillColor=none;" parent="ApyK9dZCyS79xW809X-P-85" vertex="1">
          <mxGeometry y="26" width="185" height="44" as="geometry" />
        </mxCell>
        <mxCell id="ApyK9dZCyS79xW809X-P-87" value="Optional&lt;T&gt; &#xa;findById(String id)" style="text;align=left;verticalAlign=top;spacingLeft=4;spacingRight=4;overflow=hidden;rotatable=0;points=[[0,0.5],[1,0.5]];portConstraint=eastwest;fillColor=none;" parent="ApyK9dZCyS79xW809X-P-85" vertex="1">
          <mxGeometry y="70" width="185" height="40" as="geometry" />
        </mxCell>
        <mxCell id="ApyK9dZCyS79xW809X-P-88" value="void deleteById(String id)" style="text;align=left;verticalAlign=top;spacingLeft=4;spacingRight=4;overflow=hidden;rotatable=0;points=[[0,0.5],[1,0.5]];portConstraint=eastwest;fillColor=none;" parent="ApyK9dZCyS79xW809X-P-85" vertex="1">
          <mxGeometry y="110" width="185" height="26" as="geometry" />
        </mxCell>
        <mxCell id="ApyK9dZCyS79xW809X-P-89" value="Calendar save(T &#xa;entity)" style="text;align=left;verticalAlign=top;spacingLeft=4;spacingRight=4;overflow=hidden;rotatable=0;points=[[0,0.5],[1,0.5]];portConstraint=eastwest;fillColor=none;" parent="ApyK9dZCyS79xW809X-P-85" vertex="1">
          <mxGeometry y="136" width="185" height="34" as="geometry" />
        </mxCell>
        <mxCell id="ApyK9dZCyS79xW809X-P-90" value="Calendar merge(T &#xa;newEntity, T &#xa;entity)" style="text;align=left;verticalAlign=top;spacingLeft=4;spacingRight=4;overflow=hidden;rotatable=0;points=[[0,0.5],[1,0.5]];portConstraint=eastwest;fillColor=none;" parent="ApyK9dZCyS79xW809X-P-85" vertex="1">
          <mxGeometry y="170" width="185" height="60" as="geometry" />
        </mxCell>
      </root>
    </mxGraphModel>
  </diagram>
</mxfile>
